# Blender v2.93.5 OBJ File: 'food.blend'
# www.blender.org
mtllib flat_pan.mtl
o Crepe_Pan_Circle
v 8.579069 -0.000001 3.553642
v 3.553513 0.000001 8.579123
v -3.553643 0.000003 8.579068
v -8.579123 0.000003 3.553513
v -8.579069 0.000001 -3.553643
v -3.553514 -0.000001 -8.579123
v 3.553643 -0.000003 -8.579069
v 8.579122 -0.000003 -3.553516
v -1.184590 0.000003 8.579086
v 1.184461 0.000002 8.579104
v -1.184590 0.000003 9.468852
v 1.184461 0.000002 9.468871
v -1.184590 1.214098 10.676386
v 1.184462 1.214097 10.676404
v -1.184589 3.248950 19.582323
v 1.184462 3.248950 19.582340
v 8.579069 0.280774 3.553642
v 3.553513 0.280777 8.579123
v -3.553643 0.280778 8.579068
v -8.579123 0.280778 3.553513
v -8.579069 0.280776 -3.553643
v -3.553514 0.280774 -8.579123
v 3.553643 0.280772 -8.579069
v 8.579122 0.280772 -3.553516
v 8.912092 -0.292619 3.691585
v 3.691455 -0.292616 8.912144
v -3.691586 -0.292615 8.912092
v -8.912145 -0.292615 3.691455
v -8.912092 -0.292617 -3.691586
v -3.691457 -0.292619 -8.912144
v 3.691585 -0.292621 -8.912092
v 8.912144 -0.292621 -3.691458
v -1.184593 -0.207625 8.994354
v 1.184453 -0.207612 8.994385
v -1.184590 0.428706 9.290605
v 1.184461 0.428705 9.290623
v -1.184584 1.620129 10.451210
v 1.184468 1.620129 10.451226
v -1.184589 3.701572 19.478903
v 1.184463 3.701571 19.478922
v 9.008023 0.280774 3.731321
v 3.731186 0.280777 9.008063
v -3.731322 0.280778 9.008023
v -9.008063 0.280778 3.731186
v -9.008023 0.280776 -3.731322
v -3.731187 0.280774 -9.008062
v 3.731321 0.280772 -9.008023
v 9.008062 0.280772 -3.731189
vt 0.000000 0.000000
vt 0.000000 0.000000
vt 0.000000 0.000000
vt 0.000000 0.000000
vt 0.048816 0.617851
vt 0.097631 0.735702
vt 0.097631 0.735702
vt 0.048816 0.617851
vt 0.097631 0.735702
vt 0.048816 0.617851
vt 0.097631 0.735702
vt 0.048816 0.617851
vt 0.000000 0.000000
vt 0.000000 0.000000
vt 0.000000 0.000000
vt 0.000000 0.000000
vt 0.000000 0.000000
vt 0.000000 0.000000
vt 0.000000 0.000000
vt 0.000000 0.000000
vt 0.000000 0.000000
vt 0.000000 0.000000
vt 0.000000 0.000000
vt 0.000000 0.000000
vt 0.000000 0.000000
vt 0.000000 0.000000
vt 0.000000 0.000000
vt 0.000000 0.000000
vt 0.000000 0.000000
vt 0.000000 0.000000
vt 0.048816 0.617851
vt 0.048816 0.617851
vt 0.097631 0.735702
vt 0.097631 0.735702
vt 0.048816 0.617851
vt 0.097631 0.735702
vt 0.048816 0.617851
vt 0.097631 0.735702
vt 0.000000 0.000000
vt 0.000000 0.000000
vt 0.000000 0.000000
vt 0.000000 0.000000
vt 0.000000 0.000000
vt 0.000000 0.000000
vt 0.000000 0.000000
vt 0.000000 0.000000
vt 0.000000 0.000000
vt 0.000000 0.000000
vt 0.000000 0.000000
vt 0.000000 0.000000
vt 0.000000 0.000000
vt 0.000000 0.000000
vn -0.0000 0.0000 1.0000
vn -0.0000 -1.0000 0.0000
vn -0.0000 -0.7052 0.7090
vn -0.0000 -0.9749 0.2227
vn 0.0000 1.0000 -0.0000
vn 0.7071 0.0000 -0.7071
vn 0.0000 0.0000 -1.0000
vn -0.7071 0.0000 0.7071
vn 1.0000 0.0000 0.0000
vn -0.7071 0.0000 -0.7071
vn -1.0000 0.0000 -0.0000
vn 0.7071 0.0000 0.7071
vn 0.0000 -0.1650 -0.9863
vn 0.0000 0.4221 -0.9066
vn 0.0000 0.6978 -0.7163
vn 0.0000 0.9744 -0.2247
vn -0.0000 -1.0000 0.0016
vn -0.6974 -0.1650 0.6974
vn -0.0000 -0.0807 0.9967
vn 0.6974 -0.1650 -0.6974
vn -0.9863 -0.1650 -0.0000
vn 0.6974 -0.1650 0.6974
vn 0.9863 -0.1650 0.0000
vn -0.6974 -0.1650 -0.6974
vn 1.0000 0.0001 -0.0001
vn -0.0000 0.2227 0.9749
usemtl Material.002
s off
f 6/1/1 7/2/1 23/3/1 22/4/1
f 9/5/2 10/6/2 12/7/2 11/8/2
f 11/8/3 12/7/3 14/9/3 13/10/3
f 13/10/4 14/9/4 16/11/4 15/12/4
f 10/13/5 2/14/5 1/15/5 8/16/5 7/2/5 6/1/5 5/17/5 4/18/5 3/19/5 9/20/5
f 3/19/6 4/18/6 20/21/6 19/22/6
f 9/20/7 3/19/7 19/22/7 18/23/7 2/14/7 10/6/7
f 7/2/8 8/16/8 24/24/8 23/3/8
f 4/18/9 5/17/9 21/25/9 20/21/9
f 1/15/10 2/14/10 18/23/10 17/26/10
f 8/16/11 1/15/11 17/26/11 24/24/11
f 5/17/12 6/1/12 22/4/12 21/25/12
f 30/27/13 46/28/13 47/29/13 31/30/13
f 33/31/14 35/32/14 36/33/14 34/34/14
f 35/32/15 37/35/15 38/36/15 36/33/15
f 37/35/16 39/37/16 40/38/16 38/36/16
f 34/39/17 33/40/17 27/41/17 28/42/17 29/43/17 30/27/17 31/30/17 32/44/17 25/45/17 26/46/17
f 27/41/18 43/47/18 44/48/18 28/42/18
f 33/40/19 34/34/19 26/46/19 42/49/19 43/47/19 27/41/19
f 31/30/20 47/29/20 48/50/20 32/44/20
f 28/42/21 44/48/21 45/51/21 29/43/21
f 25/45/22 41/52/22 42/49/22 26/46/22
f 32/44/23 48/50/23 41/52/23 25/45/23
f 29/43/24 45/51/24 46/28/24 30/27/24
f 12/7/25 10/6/25 34/34/25 36/33/25
f 9/5/11 11/8/11 35/32/11 33/31/11
f 14/9/9 12/7/9 36/33/9 38/36/9
f 11/8/11 13/10/11 37/35/11 35/32/11
f 15/12/26 16/11/26 40/38/26 39/37/26
f 16/11/9 14/9/9 38/36/9 40/38/9
f 13/10/11 15/12/11 39/37/11 37/35/11
f 17/26/5 18/23/5 42/49/5 41/52/5
f 19/22/5 20/21/5 44/48/5 43/47/5
f 20/21/5 21/25/5 45/51/5 44/48/5
f 21/25/5 22/4/5 46/28/5 45/51/5
f 22/4/5 23/3/5 47/29/5 46/28/5
f 23/3/5 24/24/5 48/50/5 47/29/5
f 24/24/5 17/26/5 41/52/5 48/50/5
f 18/23/5 19/22/5 43/47/5 42/49/5
