# Blender v2.93.5 OBJ File: 'food.blend'
# www.blender.org
mtllib hotdog_bun.mtl
o Sausage_Cube.001
v -2.344747 -1.454112 -3.590013
v -2.344747 1.454112 -3.590013
v 2.344747 -1.454112 -3.590013
v 2.344747 1.454112 -3.590013
v -1.691240 0.384350 -4.275422
v -1.691240 -0.384350 -4.275422
v 1.691240 -0.384350 -4.275422
v 1.691240 0.384350 -4.275422
v -2.344747 -1.454112 0.000000
v -2.344747 1.454112 0.000000
v -2.344747 -1.454112 3.590012
v -2.344747 1.454112 3.590012
v 2.344747 -1.454112 0.000000
v 2.344747 1.454112 0.000000
v 2.344747 -1.454112 3.590012
v 2.344747 1.454112 3.590012
v -1.691240 0.384350 4.275422
v -1.691240 -0.384350 4.275422
v 1.691240 -0.384350 4.275422
v 1.691240 0.384350 4.275422
v 1.050505 1.454112 -3.590013
v -1.050505 1.454112 -3.590013
v -1.050505 1.454112 0.000000
v 1.050505 1.454112 0.000000
v 1.050505 0.384350 -4.275422
v -1.050505 0.384350 -4.275422
v 1.050505 -0.384350 -4.275422
v -1.050505 -0.384350 -4.275422
v -1.050505 -0.961193 -3.905832
v 1.050505 -0.961193 -3.905832
v -1.050505 -0.961193 0.000000
v 1.050505 -0.961193 0.000000
v 1.050505 1.454112 3.590012
v -1.050505 1.454112 3.590012
v -1.050505 -0.384350 4.275422
v 1.050505 -0.384350 4.275422
v 1.050505 0.384350 4.275422
v -1.050505 0.384350 4.275422
v 1.050505 -0.961193 3.905831
v -1.050505 -0.961193 3.905831
vt 0.375000 0.000000
vt 0.625000 0.000000
vt 0.625000 0.250000
vt 0.375000 0.250000
vt 0.625000 0.500000
vt 0.375000 0.500000
vt 0.375000 0.500000
vt 0.625000 0.500000
vt 0.625000 0.750000
vt 0.375000 0.750000
vt 0.125000 0.500000
vt 0.125000 0.750000
vt 0.693997 0.750000
vt 0.693997 0.500000
vt 0.875000 0.500000
vt 0.875000 0.750000
vt 0.806003 0.750000
vt 0.806003 0.500000
vt 0.375000 0.452643
vt 0.625000 0.452643
vt 0.375000 0.250000
vt 0.625000 0.250000
vt 0.625000 0.297357
vt 0.375000 0.297357
vt 0.327643 0.500000
vt 0.125000 0.500000
vt 0.172357 0.500000
vt 0.185106 0.500000
vt 0.314894 0.500000
vt 0.672357 0.500000
vt 0.875000 0.500000
vt 0.827643 0.500000
vt 0.375000 0.250000
vt 0.625000 0.250000
vt 0.625000 0.500000
vt 0.625000 0.500000
vt 0.375000 0.500000
vt 0.375000 0.500000
vt 0.375000 1.000000
vt 0.625000 1.000000
vt 0.625000 0.931003
vt 0.417373 0.931003
vt 0.417373 0.818997
vt 0.625000 0.818997
vt 0.125000 0.500000
vt 0.875000 0.500000
vt 0.806003 0.500000
vt 0.693997 0.500000
vt 0.625000 0.250000
vt 0.375000 0.250000
vt 0.375000 0.297357
vt 0.625000 0.297357
vt 0.375000 0.452643
vt 0.625000 0.452643
vt 0.125000 0.500000
vt 0.327643 0.500000
vt 0.314894 0.500000
vt 0.185106 0.500000
vt 0.172357 0.500000
vt 0.875000 0.500000
vt 0.827643 0.500000
vt 0.672357 0.500000
vt 0.450375 0.050454
vt 0.407314 0.050454
vt 0.375000 0.056898
vt 0.375000 0.125000
vt 0.510301 0.125000
vt 0.510301 0.062405
vt 0.407314 0.199546
vt 0.450375 0.199546
vt 0.510301 0.187595
vt 0.375000 0.193102
vt 0.510301 0.625000
vt 0.375000 0.625000
vt 0.375000 0.693102
vt 0.407314 0.699546
vt 0.450375 0.699546
vt 0.510301 0.687595
vt 0.450375 0.550454
vt 0.407314 0.550454
vt 0.375000 0.556898
vt 0.510301 0.562405
vt 0.125000 0.625000
vt 0.125000 0.693102
vt 0.125000 0.556898
vn -1.0000 0.0000 0.0000
vn 0.7237 0.0000 -0.6901
vn 1.0000 0.0000 0.0000
vn 0.0000 -1.0000 0.0000
vn 0.0000 1.0000 0.0000
vn 0.0000 0.0000 -1.0000
vn 0.0000 -0.5395 -0.8420
vn 0.0000 0.5395 -0.8420
vn -0.7237 0.0000 -0.6901
vn 0.7237 0.0000 0.6901
vn 0.0000 0.0000 1.0000
vn 0.0000 -0.5395 0.8420
vn 0.0000 0.5395 0.8420
vn -0.7237 0.0000 0.6901
usemtl Material.001
s off
f 9/1/1 10/2/1 2/3/1 1/4/1
f 4/5/2 3/6/2 7/7/2 8/8/2
f 3/6/3 4/5/3 14/9/3 13/10/3
f 1/11/4 3/6/4 13/10/4 9/12/4
f 24/13/5 14/9/5 4/5/5 21/14/5
f 2/15/5 10/16/5 23/17/5 22/18/5
f 8/8/6 7/7/6 27/19/6 25/20/6
f 6/21/6 5/22/6 26/23/6 28/24/6
f 27/25/7 7/7/7 3/6/7 1/11/7 6/26/7 28/27/7 29/28/7 30/29/7
f 21/14/8 4/5/8 8/8/8 25/30/8
f 5/31/8 2/15/8 22/18/8 26/32/8
f 1/4/9 2/3/9 5/22/9 6/21/9
f 9/1/1 11/33/1 12/34/1 10/2/1
f 16/35/10 20/36/10 19/37/10 15/38/10
f 15/38/3 13/10/3 14/9/3 16/35/3
f 14/9/6 13/10/6 9/39/6 10/40/6 23/41/6 31/42/6 32/43/6 24/44/6
f 11/45/4 9/12/4 13/10/4 15/38/4
f 10/16/5 12/46/5 34/47/5 23/17/5
f 16/35/5 14/9/5 24/13/5 33/48/5
f 17/49/11 18/50/11 35/51/11 38/52/11
f 36/53/11 19/37/11 20/36/11 37/54/11
f 18/55/12 11/45/12 15/38/12 19/37/12 36/56/12 39/57/12 40/58/12 35/59/12
f 12/46/13 17/60/13 38/61/13 34/47/13
f 20/36/13 16/35/13 33/48/13 37/62/13
f 11/33/14 18/50/14 17/49/14 12/34/14
f 38/63/3 35/64/3 40/65/3 31/66/3 23/67/3 34/68/3
f 28/69/3 26/70/3 22/71/3 23/67/3 31/66/3 29/72/3
f 24/73/1 32/74/1 39/75/1 36/76/1 37/77/1 33/78/1
f 25/79/1 27/80/1 30/81/1 32/74/1 24/73/1 21/82/1
f 39/75/5 32/74/5 31/83/5 40/84/5
f 32/74/5 30/81/5 29/85/5 31/83/5
