# Blender v2.93.5 OBJ File: 'food.blend'
# www.blender.org
mtllib hotdog_sausage.mtl
o Hotdog_Cube
v 1.000000 1.000000 -4.763047
v 1.000000 -1.000000 -4.763047
v -1.000000 1.000000 -4.763047
v -1.000000 -1.000000 -4.763047
v 0.380878 -0.380878 -5.531834
v -0.380878 -0.380878 -5.531834
v 0.380878 0.380878 -5.531834
v -0.380878 0.380878 -5.531834
v 1.000000 1.000000 4.763047
v 1.000000 -1.000000 4.763047
v 1.000000 1.000000 0.000000
v 1.000000 -1.000000 0.000000
v -1.000000 1.000000 4.763047
v -1.000000 -1.000000 4.763047
v -1.000000 1.000000 0.000000
v -1.000000 -1.000000 0.000000
v 0.380878 -0.380878 5.531834
v -0.380878 -0.380878 5.531834
v 0.380878 0.380878 5.531834
v -0.380878 0.380878 5.531834
vt 0.625000 0.500000
vt 0.875000 0.500000
vt 0.875000 0.750000
vt 0.625000 0.750000
vt 0.375000 0.000000
vt 0.625000 0.000000
vt 0.625000 0.250000
vt 0.375000 0.250000
vt 0.125000 0.500000
vt 0.375000 0.500000
vt 0.375000 0.750000
vt 0.125000 0.750000
vt 0.375000 0.500000
vt 0.625000 0.500000
vt 0.375000 0.250000
vt 0.625000 0.250000
vt 0.125000 0.500000
vt 0.875000 0.500000
vt 0.625000 0.500000
vt 0.875000 0.500000
vt 0.375000 1.000000
vt 0.625000 1.000000
vt 0.375000 0.250000
vt 0.625000 0.250000
vt 0.125000 0.500000
vt 0.375000 0.500000
vt 0.625000 0.500000
vt 0.375000 0.500000
vt 0.375000 0.250000
vt 0.625000 0.250000
vt 0.125000 0.500000
vt 0.875000 0.500000
vn 0.0000 1.0000 0.0000
vn -1.0000 0.0000 0.0000
vn 0.0000 -1.0000 0.0000
vn 1.0000 0.0000 0.0000
vn 0.7788 0.0000 -0.6272
vn 0.0000 0.0000 -1.0000
vn -0.7788 0.0000 -0.6272
vn 0.0000 -0.7788 -0.6272
vn 0.0000 0.7788 -0.6272
vn 0.7788 0.0000 0.6272
vn 0.0000 0.0000 1.0000
vn -0.7788 0.0000 0.6272
vn 0.0000 -0.7788 0.6272
vn 0.0000 0.7788 0.6272
usemtl Material
s off
f 1/1/1 3/2/1 15/3/1 11/4/1
f 16/5/2 15/6/2 3/7/2 4/8/2
f 4/9/3 2/10/3 12/11/3 16/12/3
f 2/10/4 1/1/4 11/4/4 12/11/4
f 1/1/5 2/10/5 5/13/5 7/14/5
f 6/15/6 8/16/6 7/14/6 5/13/6
f 4/8/7 3/7/7 8/16/7 6/15/7
f 2/10/8 4/9/8 6/17/8 5/13/8
f 3/2/9 1/1/9 7/14/9 8/18/9
f 9/19/1 11/4/1 15/3/1 13/20/1
f 12/11/6 16/21/6 15/22/6 11/4/6
f 16/5/2 14/23/2 13/24/2 15/6/2
f 14/25/3 16/12/3 12/11/3 10/26/3
f 10/26/4 12/11/4 11/4/4 9/19/4
f 9/19/10 19/27/10 17/28/10 10/26/10
f 18/29/11 17/28/11 19/27/11 20/30/11
f 14/23/12 18/29/12 20/30/12 13/24/12
f 10/26/13 17/28/13 18/31/13 14/25/13
f 13/20/14 20/32/14 19/27/14 9/19/14
