# Blender v2.93.5 OBJ File: 'food.blend'
# www.blender.org
mtllib Steak.mtl
o Bone_Cylinder
v -1.768178 -0.139760 2.264866
v -1.768178 2.419573 2.264866
v -0.299652 -0.139760 3.112720
v -0.299652 2.419573 3.112720
v -0.299652 -0.139760 4.808427
v -0.299652 2.419573 4.808427
v -1.768178 -0.139760 5.656281
v -1.768178 2.419573 5.656281
v -3.236703 -0.139760 4.808427
v -3.236703 2.419573 4.808427
v -3.236703 -0.139760 3.112720
v -3.236703 2.419573 3.112720
v 4.532851 2.241863 -6.394688
v 0.242488 2.241863 -7.565812
v -5.099626 2.241863 -4.645055
v -6.443065 2.241863 1.535475
v -4.816853 2.241863 7.323824
v -1.789025 2.241863 11.019022
v 0.725734 2.241863 9.845979
v 2.010075 2.241863 5.571476
v 4.803983 2.241863 2.348753
v 6.197808 2.241863 -2.736048
v 4.532851 0.000000 -6.394688
v 0.242488 0.000000 -7.565812
v -5.099626 0.000000 -4.645055
v -6.443065 0.000000 1.535475
v -4.816853 -0.000000 7.323824
v -1.789025 -0.000000 11.019022
v 0.725734 -0.000000 9.845979
v 2.010075 -0.000000 5.571476
v 4.803983 -0.000000 2.348753
v 6.197808 0.000000 -2.736048
vt 1.000000 0.500000
vt 1.000000 1.000000
vt 0.833333 1.000000
vt 0.833333 0.500000
vt 0.666667 1.000000
vt 0.666667 0.500000
vt 0.500000 1.000000
vt 0.500000 0.500000
vt 0.333333 1.000000
vt 0.333333 0.500000
vt 0.457846 0.370000
vt 0.250000 0.490000
vt 0.042154 0.370000
vt 0.042154 0.130000
vt 0.250000 0.010000
vt 0.457846 0.130000
vt 0.166667 1.000000
vt 0.166667 0.500000
vt -0.000000 1.000000
vt -0.000000 0.500000
vt 0.750000 0.490000
vt 0.957846 0.370000
vt 0.957846 0.130000
vt 0.750000 0.010000
vt 0.542154 0.130000
vt 0.542154 0.370000
vt 0.500000 1.000000
vt 0.206107 0.904508
vt 0.024472 0.654508
vt 0.024472 0.345491
vt 0.206107 0.095491
vt 0.500000 0.000000
vt 0.793893 0.095492
vt 0.975528 0.345491
vt 0.975528 0.654509
vt 0.793893 0.904508
vt 0.500000 1.000000
vt 0.793893 0.904508
vt 0.975528 0.654509
vt 0.975528 0.345491
vt 0.793893 0.095492
vt 0.500000 0.000000
vt 0.206107 0.095491
vt 0.024472 0.345491
vt 0.024472 0.654508
vt 0.206107 0.904508
vn 0.5000 0.0000 -0.8660
vn 1.0000 0.0000 0.0000
vn 0.5000 0.0000 0.8660
vn -0.5000 0.0000 0.8660
vn 0.0000 1.0000 0.0000
vn -1.0000 0.0000 0.0000
vn -0.5000 0.0000 -0.8660
vn 0.0000 -1.0000 0.0000
vn 0.2633 0.0000 -0.9647
vn -0.4797 0.0000 -0.8774
vn -0.9772 0.0000 -0.2124
vn -0.9627 0.0000 0.2705
vn -0.7735 0.0000 0.6338
vn 0.4227 0.0000 0.9063
vn 0.9577 0.0000 0.2878
vn 0.7556 0.0000 0.6550
vn 0.9644 0.0000 0.2644
vn 0.9102 0.0000 -0.4142
usemtl Material.003
s off
f 1/1/1 2/2/1 4/3/1 3/4/1
f 3/4/2 4/3/2 6/5/2 5/6/2
f 5/6/3 6/5/3 8/7/3 7/8/3
f 7/8/4 8/7/4 10/9/4 9/10/4
f 4/11/5 2/12/5 12/13/5 10/14/5 8/15/5 6/16/5
f 9/10/6 10/9/6 12/17/6 11/18/6
f 11/18/7 12/17/7 2/19/7 1/20/7
f 1/21/8 3/22/8 5/23/8 7/24/8 9/25/8 11/26/8
usemtl Material
f 13/27/5 14/28/5 15/29/5 16/30/5 17/31/5 18/32/5 19/33/5 20/34/5 21/35/5 22/36/5
f 23/37/8 32/38/8 31/39/8 30/40/8 29/41/8 28/42/8 27/43/8 26/44/8 25/45/8 24/46/8
f 14/28/9 13/27/9 23/37/9 24/46/9
f 15/29/10 14/28/10 24/46/10 25/45/10
f 16/30/11 15/29/11 25/45/11 26/44/11
f 17/31/12 16/30/12 26/44/12 27/43/12
f 18/32/13 17/31/13 27/43/13 28/42/13
f 19/33/14 18/32/14 28/42/14 29/41/14
f 20/34/15 19/33/15 29/41/15 30/40/15
f 21/35/16 20/34/16 30/40/16 31/39/16
f 22/36/17 21/35/17 31/39/17 32/38/17
f 13/27/18 22/36/18 32/38/18 23/37/18
