# Blender v2.93.5 OBJ File: ''
# www.blender.org
mtllib OvenDoor.mtl
o Oven_Door_Cube.003
v -0.071122 -0.063380 0.856736
v -0.071122 1.324419 0.856736
v -0.071122 -0.063380 -0.854458
v -0.071122 1.324419 -0.854458
v 0.011741 -0.063380 0.856736
v 0.011741 1.324419 0.856736
v 0.011741 -0.063380 -0.854458
v 0.011741 1.324419 -0.854458
v -0.071122 -0.063380 -0.694996
v -0.071122 -0.063380 0.695584
v -0.071122 1.324419 0.695584
v -0.071122 1.324419 -0.694996
v 0.011741 -0.063380 0.695584
v 0.011741 -0.063380 -0.694996
v 0.011741 1.324419 -0.694996
v 0.011741 1.324419 0.695584
v -0.071122 0.203054 0.856736
v -0.071122 1.179856 0.856736
v -0.071122 1.179856 -0.854458
v -0.071122 0.203054 -0.854458
v 0.011741 1.179856 -0.854458
v 0.011741 0.203054 -0.854458
v 0.011741 1.179856 0.856736
v 0.011741 0.203054 0.856736
v 0.011741 1.179856 -0.694996
v 0.011741 0.203054 -0.694996
v 0.011741 1.179856 0.695584
v 0.011741 0.203054 0.695584
v -0.071122 1.179856 0.695584
v -0.071122 0.203054 0.695584
v -0.071122 1.179856 -0.694996
v -0.071122 0.203054 -0.694996
v -0.071122 1.057756 0.856736
v -0.071122 1.057756 -0.854458
v 0.011741 1.057756 -0.854458
v 0.011741 1.057756 0.856736
v 0.011741 1.057756 -0.694996
v 0.011741 1.057756 0.695584
v -0.071122 1.057756 0.695584
v -0.071122 1.057756 -0.694996
v 0.054059 1.179856 -0.854458
v 0.054059 1.179856 -0.694996
v 0.054059 1.179856 0.695584
v 0.054059 1.179856 0.856736
v 0.054059 1.057756 -0.854458
v 0.054059 1.057756 0.856736
v 0.054059 1.057756 -0.694996
v 0.054059 1.057756 0.695584
v 0.113902 1.179856 -0.854458
v 0.113902 1.179856 -0.694996
v 0.113902 1.179856 0.695584
v 0.113902 1.179856 0.856736
v 0.113902 1.057756 -0.854458
v 0.113902 1.057756 0.856736
v 0.113902 1.057756 -0.694996
v 0.113902 1.057756 0.695584
vt 0.598958 0.226703
vt 0.625000 0.226703
vt 0.625000 0.250000
vt 0.598958 0.250000
vt 0.625000 0.500000
vt 0.598958 0.500000
vt 0.598958 0.726456
vt 0.625000 0.726456
vt 0.625000 0.750000
vt 0.598958 0.750000
vt 0.625000 1.000000
vt 0.598958 1.000000
vt 0.125000 0.726456
vt 0.375000 0.726456
vt 0.375000 0.750000
vt 0.125000 0.750000
vt 0.875000 0.726456
vt 0.875000 0.750000
vt 0.875000 0.500000
vt 0.875000 0.523297
vt 0.625000 0.523297
vt 0.125000 0.500000
vt 0.375000 0.500000
vt 0.375000 0.523297
vt 0.125000 0.523297
vt 0.598958 0.523297
vt 0.598958 0.000000
vt 0.625000 0.000000
vt 0.625000 0.023544
vt 0.598958 0.023544
vt 0.375000 0.023544
vt 0.422996 0.023544
vt 0.422996 0.226703
vt 0.375000 0.226703
vt 0.576963 0.023544
vt 0.576963 0.226703
vt 0.375000 0.000000
vt 0.422996 0.000000
vt 0.576963 0.000000
vt 0.422996 0.523297
vt 0.422996 0.726456
vt 0.576963 0.523297
vt 0.576963 0.726456
vt 0.422996 0.500000
vt 0.598958 0.523297
vt 0.598958 0.500000
vt 0.422996 0.750000
vt 0.422996 1.000000
vt 0.375000 1.000000
vt 0.576963 0.750000
vt 0.576963 1.000000
vt 0.576963 0.523297
vt 0.375000 0.250000
vt 0.422996 0.250000
vt 0.576963 0.250000
vt 0.576963 0.500000
vt 0.598958 0.523297
vt 0.598958 0.726456
vt 0.598958 0.726456
vt 0.576963 0.750000
vt 0.576963 0.726456
vt 0.576963 0.726456
vt 0.576963 0.750000
vt 0.576963 0.500000
vt 0.598958 0.750000
vt 0.576963 0.500000
vt 0.598958 0.500000
vt 0.576963 0.523297
vt 0.598958 0.750000
vn -1.0000 0.0000 0.0000
vn 0.0000 0.0000 -1.0000
vn 1.0000 0.0000 0.0000
vn 0.0000 0.0000 1.0000
vn 0.0000 -1.0000 0.0000
vn 0.0000 1.0000 0.0000
usemtl None
s off
f 31/1/1 12/2/1 4/3/1 19/4/1
f 19/4/2 4/3/2 8/5/2 21/6/2
f 27/7/3 16/8/3 6/9/3 23/10/3
f 23/10/4 6/9/4 2/11/4 18/12/4
f 10/13/5 13/14/5 5/15/5 1/16/5
f 16/8/6 11/17/6 2/18/6 6/9/6
f 8/5/6 4/19/6 12/20/6 15/21/6
f 15/21/6 12/20/6 11/17/6 16/8/6
f 3/22/5 7/23/5 14/24/5 9/25/5
f 9/25/5 14/24/5 13/14/5 10/13/5
f 21/6/3 8/5/3 15/21/3 25/26/3
f 25/26/3 15/21/3 16/8/3 27/7/3
f 18/27/1 2/28/1 11/29/1 29/30/1
f 29/30/1 11/29/1 12/2/1 31/1/1
f 10/31/1 30/32/1 32/33/1 9/34/1
f 39/35/1 29/30/1 31/1/1 40/36/1
f 1/37/1 17/38/1 30/32/1 10/31/1
f 33/39/1 18/27/1 29/30/1 39/35/1
f 14/24/3 26/40/3 28/41/3 13/14/3
f 37/42/3 25/26/3 27/7/3 38/43/3
f 7/23/3 22/44/3 26/40/3 14/24/3
f 21/6/6 25/26/6 42/45/6 41/46/6
f 5/15/4 24/47/4 17/48/4 1/49/4
f 36/50/4 23/10/4 18/12/4 33/51/4
f 13/14/3 28/41/3 24/47/3 5/15/3
f 25/26/4 37/42/4 47/52/4 42/45/4
f 3/53/2 20/54/2 22/44/2 7/23/2
f 34/55/2 19/4/2 21/6/2 35/56/2
f 9/34/1 32/33/1 20/54/1 3/53/1
f 40/36/1 31/1/1 19/4/1 34/55/1
f 32/33/1 40/36/1 34/55/1 20/54/1
f 20/54/2 34/55/2 35/56/2 22/44/2
f 28/41/3 38/43/3 36/50/3 24/47/3
f 24/47/4 36/50/4 33/51/4 17/48/4
f 22/44/3 35/56/3 37/42/3 26/40/3
f 26/40/4 37/42/4 40/36/4 32/33/4
f 17/38/1 33/39/1 39/35/1 30/32/1
f 30/32/6 28/41/6 26/40/6 32/33/6
f 50/57/6 42/45/6 43/58/6 51/59/6
f 46/60/5 48/61/5 56/62/5 54/63/5
f 35/56/2 21/6/2 41/46/2 45/64/2
f 38/43/2 27/7/2 43/58/2 48/61/2
f 23/10/4 36/50/4 46/60/4 44/65/4
f 37/42/5 35/56/5 45/64/5 47/52/5
f 36/50/5 38/43/5 48/61/5 46/60/5
f 27/7/6 23/10/6 44/65/6 43/58/6
f 53/66/3 49/67/3 50/57/3 55/68/3
f 56/62/3 51/59/3 52/69/3 54/63/3
f 45/64/2 41/46/2 49/67/2 53/66/2
f 41/46/6 42/45/6 50/57/6 49/67/6
f 47/52/5 45/64/5 53/66/5 55/68/5
f 47/52/1 48/61/1 43/58/1 42/45/1
f 44/65/4 46/60/4 54/63/4 52/69/4
f 43/58/6 44/65/6 52/69/6 51/59/6
f 56/62/5 48/61/5 47/52/5 55/68/5
f 55/68/3 50/57/3 51/59/3 56/62/3
f 37/42/5 38/43/5 39/35/5 40/36/5
f 28/41/2 30/32/2 39/35/2 38/43/2
