# Blender v2.93.5 OBJ File: 'TruckKitchenInterior.blend'
# www.blender.org
mtllib FridgeDoor.mtl
o Fridge_Door_Cube.011
v 0.215179 -0.371462 6.485230
v 0.215179 2.949863 6.485230
v 0.215179 -0.371462 4.485230
v 0.215179 2.949863 4.485230
v 0.363427 -0.371462 6.485230
v 0.363427 2.949863 6.485230
v 0.363427 -0.371462 4.485230
v 0.363427 2.949863 4.485230
v 0.215179 -0.371462 6.072498
v 0.215179 -0.371462 6.196792
v 0.215179 2.949863 6.196792
v 0.215179 2.949863 6.072498
v 0.363427 -0.371462 6.196792
v 0.363427 -0.371462 6.072498
v 0.363427 2.949863 6.072498
v 0.363427 2.949863 6.196792
v 0.215179 0.847419 6.485230
v 0.215179 0.957068 6.485230
v 0.215179 2.146000 6.485230
v 0.215179 2.285598 6.485230
v 0.215179 2.285598 4.485230
v 0.215179 2.146000 4.485230
v 0.215179 0.957068 4.485230
v 0.215179 0.847419 4.485230
v 0.363427 2.285598 4.485230
v 0.363427 2.146000 4.485230
v 0.363427 0.957068 4.485230
v 0.363427 0.847419 4.485230
v 0.363427 2.285598 6.485230
v 0.363427 2.146000 6.485230
v 0.363427 0.957068 6.485230
v 0.363427 0.847419 6.485230
v 0.363427 2.285598 6.072498
v 0.363427 2.146000 6.072498
v 0.363427 0.957068 6.072498
v 0.363427 0.847419 6.072498
v 0.363427 2.285598 6.196792
v 0.363427 2.146000 6.196792
v 0.363427 0.957068 6.196792
v 0.363427 0.847419 6.196792
v 0.215179 2.285598 6.196792
v 0.215179 2.146000 6.196792
v 0.215179 0.957068 6.196792
v 0.215179 0.847419 6.196792
v 0.215179 2.285598 6.072498
v 0.215179 2.146000 6.072498
v 0.215179 0.957068 6.072498
v 0.215179 0.847419 6.072498
v 0.434805 2.285598 6.072498
v 0.434805 2.146000 6.072498
v 0.434805 0.957068 6.072498
v 0.434805 0.847419 6.072498
v 0.434805 2.285598 6.196792
v 0.434805 2.146000 6.196792
v 0.434805 0.957068 6.196792
v 0.434805 0.847419 6.196792
v 0.485569 2.285598 6.072498
v 0.485569 2.146000 6.072498
v 0.485569 0.957068 6.072498
v 0.485569 0.847419 6.072498
v 0.485569 2.285598 6.196792
v 0.485569 2.146000 6.196792
v 0.485569 0.957068 6.196792
v 0.485569 0.847419 6.196792
vt 0.575000 0.051592
vt 0.625000 0.051592
vt 0.625000 0.250000
vt 0.575000 0.250000
vt 0.625000 0.500000
vt 0.575000 0.500000
vt 0.575000 0.713945
vt 0.625000 0.713945
vt 0.625000 0.750000
vt 0.575000 0.750000
vt 0.625000 1.000000
vt 0.575000 1.000000
vt 0.125000 0.713945
vt 0.375000 0.713945
vt 0.375000 0.750000
vt 0.125000 0.750000
vt 0.875000 0.713945
vt 0.875000 0.750000
vt 0.875000 0.500000
vt 0.875000 0.698408
vt 0.625000 0.698408
vt 0.125000 0.500000
vt 0.375000 0.500000
vt 0.375000 0.698408
vt 0.125000 0.698408
vt 0.575000 0.698408
vt 0.575000 0.000000
vt 0.625000 0.000000
vt 0.625000 0.036055
vt 0.575000 0.036055
vt 0.375000 0.036055
vt 0.466747 0.036055
vt 0.466747 0.051592
vt 0.375000 0.051592
vt 0.475000 0.036055
vt 0.475000 0.051592
vt 0.564492 0.036055
vt 0.564492 0.051592
vt 0.375000 0.000000
vt 0.466747 0.000000
vt 0.475000 0.000000
vt 0.564492 0.000000
vt 0.466747 0.698408
vt 0.466747 0.713945
vt 0.466747 0.698408
vt 0.466747 0.713945
vt 0.475000 0.698408
vt 0.564492 0.698408
vt 0.564492 0.713945
vt 0.475000 0.713945
vt 0.564492 0.698408
vt 0.564492 0.713945
vt 0.466747 0.500000
vt 0.475000 0.500000
vt 0.564492 0.500000
vt 0.466747 0.750000
vt 0.466747 1.000000
vt 0.375000 1.000000
vt 0.475000 0.750000
vt 0.475000 1.000000
vt 0.564492 0.750000
vt 0.564492 1.000000
vt 0.375000 0.250000
vt 0.466747 0.250000
vt 0.475000 0.250000
vt 0.564492 0.250000
vt 0.575000 0.713945
vt 0.564492 0.713945
vt 0.575000 0.713945
vt 0.466747 0.698408
vt 0.466747 0.713945
vt 0.475000 0.713945
vt 0.575000 0.698408
vt 0.475000 0.698408
vt 0.475000 0.698408
vt 0.475000 0.713945
vt 0.564492 0.698408
vt 0.575000 0.698408
vn -1.0000 0.0000 0.0000
vn 0.0000 0.0000 -1.0000
vn 1.0000 0.0000 0.0000
vn 0.0000 0.0000 1.0000
vn 0.0000 -1.0000 0.0000
vn 0.0000 1.0000 0.0000
usemtl None
s off
f 45/1/1 12/2/1 4/3/1 21/4/1
f 21/4/2 4/3/2 8/5/2 25/6/2
f 37/7/3 16/8/3 6/9/3 29/10/3
f 29/10/4 6/9/4 2/11/4 20/12/4
f 10/13/5 13/14/5 5/15/5 1/16/5
f 16/8/6 11/17/6 2/18/6 6/9/6
f 8/5/6 4/19/6 12/20/6 15/21/6
f 15/21/6 12/20/6 11/17/6 16/8/6
f 3/22/5 7/23/5 14/24/5 9/25/5
f 9/25/5 14/24/5 13/14/5 10/13/5
f 25/6/3 8/5/3 15/21/3 33/26/3
f 33/26/3 15/21/3 16/8/3 37/7/3
f 20/27/1 2/28/1 11/29/1 41/30/1
f 41/30/1 11/29/1 12/2/1 45/1/1
f 10/31/1 44/32/1 48/33/1 9/34/1
f 44/32/1 43/35/1 47/36/1 48/33/1
f 43/35/1 42/37/1 46/38/1 47/36/1
f 42/37/1 41/30/1 45/1/1 46/38/1
f 1/39/1 17/40/1 44/32/1 10/31/1
f 17/40/1 18/41/1 43/35/1 44/32/1
f 18/41/1 19/42/1 42/37/1 43/35/1
f 19/42/1 20/27/1 41/30/1 42/37/1
f 14/24/3 36/43/3 40/44/3 13/14/3
f 40/44/5 36/43/5 52/45/5 56/46/5
f 35/47/3 34/48/3 38/49/3 39/50/3
f 38/49/5 34/48/5 50/51/5 54/52/5
f 7/23/3 28/53/3 36/43/3 14/24/3
f 28/53/3 27/54/3 35/47/3 36/43/3
f 27/54/3 26/55/3 34/48/3 35/47/3
f 26/55/3 25/6/3 33/26/3 34/48/3
f 5/15/4 32/56/4 17/57/4 1/58/4
f 32/56/4 31/59/4 18/60/4 17/57/4
f 31/59/4 30/61/4 19/62/4 18/60/4
f 30/61/4 29/10/4 20/12/4 19/62/4
f 13/14/3 40/44/3 32/56/3 5/15/3
f 40/44/3 39/50/3 31/59/3 32/56/3
f 39/50/3 38/49/3 30/61/3 31/59/3
f 38/49/3 37/7/3 29/10/3 30/61/3
f 3/63/2 24/64/2 28/53/2 7/23/2
f 24/64/2 23/65/2 27/54/2 28/53/2
f 23/65/2 22/66/2 26/55/2 27/54/2
f 22/66/2 21/4/2 25/6/2 26/55/2
f 9/34/1 48/33/1 24/64/1 3/63/1
f 48/33/1 47/36/1 23/65/1 24/64/1
f 47/36/1 46/38/1 22/66/1 23/65/1
f 46/38/1 45/1/1 21/4/1 22/66/1
f 53/67/4 54/52/4 62/68/4 61/69/4
f 56/46/5 52/45/5 60/70/5 64/71/5
f 39/50/4 40/44/4 56/46/4 55/72/4
f 33/26/6 37/7/6 53/67/6 49/73/6
f 37/7/4 38/49/4 54/52/4 53/67/4
f 35/47/6 39/50/6 55/72/6 51/74/6
f 36/43/2 35/47/2 51/74/2 52/45/2
f 34/48/2 33/26/2 49/73/2 50/51/2
f 60/70/3 59/75/3 63/76/3 64/71/3
f 58/77/3 57/78/3 61/69/3 62/68/3
f 50/51/2 49/73/2 57/78/2 58/77/2
f 49/73/6 53/67/6 61/69/6 57/78/6
f 55/72/4 56/46/4 64/71/4 63/76/4
f 52/45/2 51/74/2 59/75/2 60/70/2
f 55/72/1 54/52/1 50/51/1 51/74/1
f 50/51/2 58/77/2 59/75/2 51/74/2
f 63/76/3 59/75/3 58/77/3 62/68/3
f 62/68/4 54/52/4 55/72/4 63/76/4
