# Blender v2.93.5 OBJ File: 'TruckKitchenInterior.blend'
# www.blender.org
mtllib FumeHood.mtl
o Fume_Hood_Cube.013
v -2.332881 2.564082 2.113284
v -2.332881 3.564082 2.113284
v -2.332881 2.564082 -0.786716
v -2.332881 3.564082 -0.786716
v -0.932881 2.564082 2.113284
v -0.932881 2.564082 -0.786716
v -0.932881 2.922695 2.113284
v -1.830822 3.564082 2.113284
v -1.830822 3.564082 -0.786716
v -0.932881 2.922695 -0.786716
v -2.233890 2.564082 1.908230
v -2.252053 3.506347 1.945853
v -2.233890 2.564082 -0.581662
v -2.252053 3.506347 -0.619285
v -1.031873 2.564082 1.908230
v -1.031873 2.564082 -0.581662
v -1.033300 2.892986 1.930515
v -1.872416 3.492354 1.930515
v -1.872416 3.492354 -0.603947
v -1.033300 2.892986 -0.603947
v -2.251792 3.492850 0.723794
v -1.872416 3.492354 0.723794
v -1.885867 3.492850 0.723794
v -2.237408 2.746618 0.723794
v -2.236169 2.682339 0.638294
v -2.235986 2.672850 0.638294
v -1.032345 2.672850 0.638294
v -1.033300 2.892986 0.638294
v -2.251792 3.492850 0.638294
v -1.872416 3.492354 0.638294
v -1.885867 3.492850 0.638294
v -1.032345 2.672850 0.723794
v -2.235986 2.672850 0.723794
v -2.235986 2.672850 1.257694
v -2.235986 2.672850 1.172194
v -2.237408 2.746618 1.172194
v -2.236169 2.682339 0.189894
v -2.235986 2.672850 0.189894
v -2.235986 2.672850 0.104394
v -2.235986 2.672850 -0.344006
v -2.235986 2.672850 -0.429506
v -1.032345 2.672850 1.257694
v -1.033300 2.892986 1.257694
v -2.251792 3.492850 1.257694
v -1.872416 3.492354 1.257694
v -1.885867 3.492850 1.257694
v -2.235986 2.672850 1.791594
v -2.251792 3.492850 1.791594
v -1.032345 2.672850 1.172194
v -1.033300 2.892986 1.172194
v -2.235986 2.672850 1.706094
v -2.251792 3.492850 1.172194
v -2.251792 3.492850 1.706094
v -2.251792 3.492850 0.104394
v -2.251792 3.492850 -0.429506
v -2.251792 3.492850 -0.344006
v -2.251792 3.492850 0.189894
v -1.872416 3.492354 1.172194
v -1.885867 3.492850 1.172194
v -1.032345 2.672850 1.791594
v -1.032345 2.672850 1.706094
v -1.033300 2.892986 1.791594
v -1.033300 2.892986 1.706094
v -1.033300 2.892986 0.723794
v -1.032345 2.672850 0.104394
v -1.033300 2.892986 0.104394
v -1.033300 2.892986 0.189894
v -1.032345 2.672850 0.189894
v -1.033300 2.892986 -0.344006
v -1.032345 2.672850 -0.344006
v -1.032345 2.672850 -0.429506
v -1.033300 2.892986 -0.429506
v -1.872416 3.492354 1.791594
v -1.885867 3.492850 1.791594
v -1.872416 3.492354 1.706094
v -1.885867 3.492850 1.706094
v -1.872416 3.492354 0.189894
v -1.872416 3.492354 0.104394
v -1.872416 3.492354 -0.344006
v -1.872416 3.492354 -0.429506
v -1.885867 3.492850 0.189894
v -1.885867 3.492850 0.104394
v -1.885867 3.492850 -0.344006
v -1.885867 3.492850 -0.429506
vt 0.375000 0.000000
vt 0.625000 0.000000
vt 0.625000 0.250000
vt 0.375000 0.250000
vt 0.625000 1.000000
vt 0.375000 1.000000
vt 0.375000 0.750000
vt 0.464653 0.750000
vt 0.625000 0.910347
vt 0.375000 0.500000
vt 0.625000 0.339653
vt 0.464653 0.500000
vt 0.785347 0.500000
vt 0.785347 0.750000
vt 0.875000 0.500000
vt 0.875000 0.750000
vt 0.621419 0.015012
vt 0.625000 0.000000
vt 0.375000 0.000000
vt 0.375000 0.250000
vt 0.625000 0.250000
vt 0.621419 0.231525
vt 0.403858 0.234410
vt 0.403858 0.225871
vt 0.403858 0.180993
vt 0.403858 0.172428
vt 0.406376 0.172416
vt 0.406376 0.127503
vt 0.403858 0.127504
vt 0.403858 0.118937
vt 0.423430 0.118950
vt 0.423430 0.074125
vt 0.403858 0.074014
vt 0.403858 0.065450
vt 0.621419 0.067057
vt 0.621419 0.023347
vt 0.403858 0.020580
vt 0.403858 0.012047
vt 0.621419 0.075392
vt 0.621419 0.119102
vt 0.621419 0.127436
vt 0.621419 0.171146
vt 0.621419 0.179480
vt 0.621419 0.223190
vt 0.375000 0.750000
vt 0.375000 1.000000
vt 0.625000 1.000000
vt 0.625000 0.910347
vt 0.464653 0.750000
vt 0.375000 0.500000
vt 0.464653 0.500000
vt 0.625000 0.339653
vt 0.464653 0.517207
vt 0.464653 0.736297
vt 0.404648 0.737645
vt 0.404648 0.729118
vt 0.464653 0.727863
vt 0.464653 0.683633
vt 0.404648 0.684353
vt 0.404648 0.675815
vt 0.464653 0.675199
vt 0.464653 0.630969
vt 0.404648 0.631042
vt 0.404648 0.622505
vt 0.464653 0.622535
vt 0.464653 0.578305
vt 0.404648 0.577732
vt 0.404648 0.569194
vt 0.464653 0.569871
vt 0.464653 0.525641
vt 0.404648 0.524427
vt 0.404648 0.515897
vt 0.785347 0.622535
vt 0.785347 0.578305
vt 0.785347 0.750000
vt 0.785347 0.736297
vt 0.785347 0.683633
vt 0.785347 0.727863
vt 0.785347 0.630969
vt 0.785347 0.675199
vt 0.785347 0.569871
vt 0.785347 0.525641
vt 0.785347 0.500000
vt 0.785347 0.517207
vt 0.875000 0.750000
vt 0.875000 0.500000
vt 0.788523 0.517244
vt 0.788523 0.525675
vt 0.788523 0.569891
vt 0.788523 0.578322
vt 0.788523 0.622536
vt 0.788523 0.630967
vt 0.788523 0.675181
vt 0.788523 0.683612
vt 0.788523 0.727828
vt 0.788523 0.736259
vt 0.023529 0.000000
vt 0.036002 0.000000
vt 0.985793 0.000000
vt 0.985040 0.000000
vt 0.322895 0.000000
vt 0.312281 0.000000
vt 0.985040 0.000000
vt 0.985793 0.000000
vt 0.036002 0.000000
vt 0.023529 0.000000
vt 0.312281 0.000000
vt 0.322895 0.000000
vt 0.025546 1.000000
vt 0.025546 1.000000
vt 0.339047 1.000000
vt 0.339047 1.000000
vt 0.023529 0.000000
vt 0.035858 0.000000
vt 0.036002 0.000000
vt 0.985793 0.000000
vt 0.985040 0.000000
vt 0.322895 0.000000
vt 0.312281 0.000000
vt 0.985040 0.000000
vt 0.985793 0.000000
vt 0.036002 0.000000
vt 0.023529 0.000000
vt 0.312281 0.000000
vt 0.322895 0.000000
vt 0.025546 1.000000
vt 0.025546 1.000000
vt 0.339047 1.000000
vt 0.339047 1.000000
vt 0.322895 0.000000
vt 0.312281 0.000000
vt 0.023529 0.000000
vt 0.034880 0.000000
vt 0.036002 0.000000
vt 0.985793 0.000000
vt 0.985040 0.000000
vt 0.985040 0.000000
vt 0.985793 0.000000
vt 0.036002 0.000000
vt 0.035858 0.000000
vt 0.023529 0.000000
vt 0.312281 0.000000
vt 0.322895 0.000000
vt 0.025546 1.000000
vt 0.339047 1.000000
vt 0.339047 1.000000
vt 0.025546 1.000000
vt 0.023529 0.000000
vt 0.036002 0.000000
vt 0.985793 0.000000
vt 0.985040 0.000000
vt 0.322895 0.000000
vt 0.312281 0.000000
vt 0.985040 0.000000
vt 0.985793 0.000000
vt 0.036002 0.000000
vt 0.034880 0.000000
vt 0.023529 0.000000
vt 0.312281 0.000000
vt 0.322895 0.000000
vt 0.025546 1.000000
vt 0.339047 1.000000
vt 0.339047 1.000000
vt 0.025546 1.000000
vt 0.322895 0.000000
vt 0.312281 0.000000
vt 0.023529 0.000000
vt 0.036002 0.000000
vt 0.985793 0.000000
vt 0.985040 0.000000
vt 0.322895 0.000000
vt 0.985040 0.000000
vt 0.985793 0.000000
vt 0.036002 0.000000
vt 0.023529 0.000000
vt 0.312281 0.000000
vt 0.025546 1.000000
vt 0.025546 1.000000
vt 0.339047 1.000000
vt 0.339047 1.000000
vn -1.0000 0.0000 0.0000
vn 0.0000 0.0000 1.0000
vn 0.0000 0.0000 -1.0000
vn 1.0000 0.0000 0.0000
vn 0.5812 0.8137 0.0000
vn 0.0000 1.0000 0.0000
vn 0.9998 0.0193 0.0000
vn -0.0003 0.0340 -0.9994
vn -0.0003 0.0340 0.9994
vn -1.0000 -0.0043 0.0000
vn -0.5812 -0.8137 0.0000
vn -0.0368 -0.9993 0.0000
vn 0.0000 -1.0000 0.0000
usemtl None
s off
f 1/1/1 2/2/1 4/3/1 3/4/1
f 2/5/2 1/6/2 5/7/2 7/8/2 8/9/2
f 6/10/3 3/4/3 4/3/3 9/11/3 10/12/3
f 6/10/4 10/12/4 7/8/4 5/7/4
f 9/13/5 8/14/5 7/8/5 10/12/5
f 9/13/6 4/15/6 2/16/6 8/14/6
f 48/17/7 12/18/7 11/19/7 13/20/7 14/21/7 55/22/7 41/23/7 40/24/7 39/25/7 38/26/7 37/27/7 25/28/7 26/29/7 33/30/7 24/31/7 36/32/7 35/33/7 34/34/7 44/35/7 53/36/7 51/37/7 47/38/7
f 55/22/7 14/21/7 12/18/7 48/17/7 53/36/7 44/35/7 52/39/7 36/32/7 24/31/7 21/40/7 29/41/7 25/28/7 37/27/7 57/42/7 54/43/7 39/25/7 40/24/7 56/44/7
f 15/45/8 11/46/8 12/47/8 18/48/8 17/49/8
f 14/21/9 13/20/9 16/50/9 20/51/9 19/52/9
f 72/53/10 20/51/10 16/50/10 15/45/10 17/49/10 62/54/10 60/55/10 61/56/10 63/57/10 43/58/10 42/59/10 49/60/10 50/61/10 64/62/10 32/63/10 27/64/10 28/65/10 67/66/10 68/67/10 65/68/10 66/69/10 69/70/10 70/71/10 71/72/10
f 28/65/11 30/73/11 77/74/11 67/66/11
f 17/49/11 18/75/11 73/76/11 62/54/11
f 45/77/11 43/58/11 63/57/11 75/78/11
f 22/79/11 64/62/11 50/61/11 58/80/11
f 78/81/11 79/82/11 69/70/11 66/69/11
f 19/83/11 20/51/11 72/53/11 80/84/11
f 18/75/12 12/85/12 14/86/12 19/83/12 80/84/12 84/87/12 83/88/12 79/82/12 78/81/12 82/89/12 81/90/12 77/74/12 30/73/12 31/91/12 23/92/12 22/79/12 58/80/12 59/93/12 46/94/12 45/77/12 75/78/12 76/95/12 74/96/12 73/76/12
f 1/1/13 3/4/13 13/20/13 11/19/13
f 3/4/13 6/10/13 16/50/13 13/20/13
f 6/10/13 5/7/13 15/45/13 16/50/13
f 5/7/13 1/6/13 11/46/13 15/45/13
f 56/97/2 40/98/2 70/99/2 69/100/2 79/101/2 83/102/2
f 72/103/3 71/104/3 41/105/3 55/106/3 84/107/3 80/108/3
f 70/99/13 40/98/13 41/105/13 71/104/13
f 55/109/6 56/110/6 83/111/6 84/112/6
f 57/113/2 37/114/2 38/115/2 68/116/2 67/117/2 77/118/2 81/119/2
f 66/120/3 65/121/3 39/122/3 54/123/3 82/124/3 78/125/3
f 68/116/13 38/115/13 39/122/13 65/121/13
f 54/126/6 57/127/6 81/128/6 82/129/6
f 22/130/2 23/131/2 21/132/2 24/133/2 33/134/2 32/135/2 64/136/2
f 28/137/3 27/138/3 26/139/3 25/140/3 29/141/3 31/142/3 30/143/3
f 26/139/13 27/138/13 32/135/13 33/134/13
f 21/144/6 23/145/6 31/146/6 29/147/6
f 44/148/2 34/149/2 42/150/2 43/151/2 45/152/2 46/153/2
f 50/154/3 49/155/3 35/156/3 36/157/3 52/158/3 59/159/3 58/160/3
f 42/150/13 34/149/13 35/156/13 49/155/13
f 44/161/6 46/162/6 59/163/6 52/164/6
f 73/165/2 74/166/2 48/167/2 47/168/2 60/169/2 62/170/2
f 75/171/3 63/172/3 61/173/3 51/174/3 53/175/3 76/176/3
f 60/169/13 47/168/13 51/174/13 61/173/13
f 53/177/6 48/178/6 74/179/6 76/180/6
