# Blender v2.93.5 OBJ File: 'Burgerv1.blend'
# www.blender.org
mtllib BurgerBottomBun.mtl
o BottomBun_Cylinder.001
v -0.000000 0.194216 -1.050159
v 0.204876 0.194216 -1.029981
v 0.401879 0.194216 -0.970220
v 0.583437 0.194216 -0.873175
v 0.742575 0.194216 -0.742575
v 0.873175 0.194216 -0.583437
v 0.970220 0.194216 -0.401879
v 1.029981 0.194216 -0.204876
v 1.050159 0.194216 0.000000
v 1.029981 0.194216 0.204876
v 0.970221 0.194216 0.401879
v 0.873175 0.194216 0.583437
v 0.742575 0.194216 0.742575
v 0.583437 0.194216 0.873176
v 0.401879 0.194216 0.970220
v 0.204876 0.194216 1.029981
v -0.000000 0.194216 1.050159
v -0.204876 0.194216 1.029981
v -0.401879 0.194216 0.970220
v -0.583437 0.194216 0.873175
v -0.742575 0.194216 0.742575
v -0.873175 0.194216 0.583437
v -0.970220 0.194216 0.401879
v -1.029981 0.194216 0.204876
v -1.050159 0.194216 -0.000000
v -1.029981 0.194216 -0.204876
v -0.970220 0.194216 -0.401879
v -0.873176 0.194216 -0.583437
v -0.742575 0.194216 -0.742575
v -0.583437 0.194216 -0.873175
v -0.401879 0.194216 -0.970221
v -0.204876 0.194216 -1.029981
v 0.000000 -0.148998 -1.105886
v 0.215748 -0.148998 -1.084637
v 0.423204 -0.148998 -1.021706
v 0.614397 -0.148998 -0.919511
v 0.781980 -0.148998 -0.781980
v 0.919511 -0.148998 -0.614397
v 1.021706 -0.148998 -0.423204
v 1.084637 -0.148998 -0.215748
v 1.105886 -0.148998 0.000000
v 1.084637 -0.148998 0.215748
v 1.021706 -0.148998 0.423204
v 0.919511 -0.148998 0.614397
v 0.781980 -0.148998 0.781980
v 0.614397 -0.148998 0.919511
v 0.423204 -0.148998 1.021706
v 0.215748 -0.148998 1.084637
v -0.000000 -0.148998 1.105886
v -0.215748 -0.148998 1.084637
v -0.423204 -0.148998 1.021706
v -0.614397 -0.148998 0.919511
v -0.781980 -0.148998 0.781980
v -0.919511 -0.148998 0.614398
v -1.021706 -0.148998 0.423204
v -1.084637 -0.148998 0.215748
v -1.105886 -0.148998 -0.000000
v -1.084637 -0.148998 -0.215748
v -1.021705 -0.148998 -0.423204
v -0.919511 -0.148998 -0.614397
v -0.781980 -0.148998 -0.781979
v -0.614397 -0.148998 -0.919511
v -0.423204 -0.148998 -1.021706
v -0.215748 -0.148998 -1.084637
v 0.212013 0.171262 -1.065864
v 0.215748 0.148998 -1.084637
v 0.000000 0.148998 -1.105886
v -0.000000 0.171262 -1.086745
v 0.415880 0.171262 -1.004022
v 0.423204 0.148998 -1.021706
v 0.603763 0.171262 -0.903596
v 0.614397 0.148998 -0.919511
v 0.768445 0.171262 -0.768445
v 0.781980 0.148998 -0.781980
v 0.903596 0.171262 -0.603763
v 0.919511 0.148998 -0.614397
v 1.004022 0.171262 -0.415879
v 1.021706 0.148998 -0.423204
v 1.065864 0.171262 -0.212014
v 1.084637 0.148998 -0.215748
v 1.086745 0.171262 0.000000
v 1.105886 0.148998 0.000000
v 1.065864 0.171262 0.212013
v 1.084637 0.148998 0.215748
v 1.004022 0.171262 0.415879
v 1.021706 0.148998 0.423204
v 0.903596 0.171262 0.603763
v 0.919511 0.148998 0.614397
v 0.768445 0.171262 0.768445
v 0.781980 0.148998 0.781980
v 0.603763 0.171262 0.903596
v 0.614397 0.148998 0.919511
v 0.415880 0.171262 1.004022
v 0.423204 0.148998 1.021706
v 0.212013 0.171262 1.065864
v 0.215748 0.148998 1.084637
v -0.000000 0.171262 1.086745
v -0.000000 0.148998 1.105886
v -0.212013 0.171262 1.065864
v -0.215748 0.148998 1.084637
v -0.415879 0.171262 1.004022
v -0.423204 0.148998 1.021706
v -0.603763 0.171262 0.903596
v -0.614397 0.148998 0.919511
v -0.768445 0.171262 0.768445
v -0.781980 0.148998 0.781980
v -0.903596 0.171262 0.603764
v -0.919511 0.148998 0.614398
v -1.004022 0.171262 0.415880
v -1.021706 0.148998 0.423204
v -1.065864 0.171262 0.212014
v -1.084637 0.148998 0.215748
v -1.086745 0.171262 -0.000000
v -1.105886 0.148998 -0.000000
v -1.065864 0.171262 -0.212014
v -1.084637 0.148998 -0.215748
v -1.004022 0.171262 -0.415880
v -1.021705 0.148998 -0.423204
v -0.903596 0.171262 -0.603763
v -0.919511 0.148998 -0.614397
v -0.768445 0.171262 -0.768445
v -0.781980 0.148998 -0.781979
v -0.603763 0.171262 -0.903596
v -0.614397 0.148998 -0.919511
v -0.415879 0.171262 -1.004022
v -0.423204 0.148998 -1.021706
v -0.212013 0.171262 -1.065864
v -0.215748 0.148998 -1.084637
vt 0.031250 0.532500
vt 0.031250 0.967500
vt 0.000000 0.967500
vt 0.000000 0.532500
vt 0.937500 0.532500
vt 0.937500 0.967500
vt 0.906250 0.967500
vt 0.906250 0.532500
vt 0.875000 0.967500
vt 0.875000 0.532500
vt 0.843750 0.967500
vt 0.843750 0.532500
vt 0.812500 0.967500
vt 0.812500 0.532500
vt 0.781250 0.967500
vt 0.781250 0.532500
vt 0.750000 0.967500
vt 0.750000 0.532500
vt 0.718750 0.967500
vt 0.718750 0.532500
vt 0.687500 0.967500
vt 0.687500 0.532500
vt 0.656250 0.967500
vt 0.656250 0.532500
vt 0.625000 0.967500
vt 0.625000 0.532500
vt 0.593750 0.967500
vt 0.593750 0.532500
vt 0.562500 0.967500
vt 0.562500 0.532500
vt 0.531250 0.967500
vt 0.531250 0.532500
vt 0.500000 0.967500
vt 0.500000 0.532500
vt 0.468750 0.967500
vt 0.468750 0.532500
vt 0.437500 0.967500
vt 0.437500 0.532500
vt 0.406250 0.967500
vt 0.406250 0.532500
vt 0.375000 0.967500
vt 0.375000 0.532500
vt 0.343750 0.967500
vt 0.343750 0.532500
vt 0.312500 0.967500
vt 0.312500 0.532500
vt 0.281250 0.967500
vt 0.281250 0.532500
vt 0.250000 0.967500
vt 0.250000 0.532500
vt 0.218750 0.967500
vt 0.218750 0.532500
vt 0.187500 0.967500
vt 0.187500 0.532500
vt 0.156250 0.967500
vt 0.156250 0.532500
vt 0.125000 0.967500
vt 0.125000 0.532500
vt 0.093750 0.967500
vt 0.093750 0.532500
vt 0.062500 0.967500
vt 0.062500 0.532500
vt 0.287604 0.439048
vt 0.250000 0.442751
vt 0.212396 0.439048
vt 0.176237 0.428079
vt 0.142913 0.410267
vt 0.113704 0.386296
vt 0.089733 0.357087
vt 0.071921 0.323763
vt 0.060952 0.287604
vt 0.057249 0.250000
vt 0.060952 0.212396
vt 0.071921 0.176237
vt 0.089733 0.142913
vt 0.113704 0.113704
vt 0.142913 0.089733
vt 0.176237 0.071921
vt 0.212396 0.060952
vt 0.250000 0.057249
vt 0.287604 0.060952
vt 0.323763 0.071921
vt 0.357087 0.089733
vt 0.386296 0.113704
vt 0.410267 0.142913
vt 0.428079 0.176237
vt 0.439048 0.212396
vt 0.442751 0.250000
vt 0.439048 0.287604
vt 0.428079 0.323763
vt 0.410267 0.357087
vt 0.386296 0.386296
vt 0.357087 0.410267
vt 0.323763 0.428079
vt 0.290705 0.454640
vt 0.250000 0.458649
vt 0.968750 0.532500
vt 0.968750 0.967500
vt 1.000000 0.532500
vt 1.000000 0.967500
vt 0.329847 0.442766
vt 0.209295 0.454640
vt 0.397537 0.397537
vt 0.365919 0.423485
vt 0.423485 0.365919
vt 0.442767 0.329847
vt 0.454640 0.290705
vt 0.458649 0.250000
vt 0.454640 0.209295
vt 0.442767 0.170153
vt 0.423485 0.134081
vt 0.397537 0.102463
vt 0.365919 0.076515
vt 0.329847 0.057233
vt 0.290705 0.045360
vt 0.250000 0.041351
vt 0.209295 0.045360
vt 0.170153 0.057233
vt 0.134081 0.076515
vt 0.102463 0.102463
vt 0.076515 0.134081
vt 0.057233 0.170153
vt 0.045360 0.209295
vt 0.041351 0.250000
vt 0.045360 0.290705
vt 0.057233 0.329847
vt 0.076515 0.365919
vt 0.102463 0.397537
vt 0.134081 0.423485
vt 0.170153 0.442767
vt 0.997959 1.000000
vt 0.970791 1.000000
vt 0.966709 1.000000
vt 0.939541 1.000000
vt 0.935459 1.000000
vt 0.908291 1.000000
vt 0.904209 1.000000
vt 0.877041 1.000000
vt 0.872959 1.000000
vt 0.845791 1.000000
vt 0.841709 1.000000
vt 0.814541 1.000000
vt 0.810459 1.000000
vt 0.783291 1.000000
vt 0.779209 1.000000
vt 0.752041 1.000000
vt 0.747959 1.000000
vt 0.720791 1.000000
vt 0.716709 1.000000
vt 0.689541 1.000000
vt 0.685459 1.000000
vt 0.658291 1.000000
vt 0.654209 1.000000
vt 0.627041 1.000000
vt 0.622959 1.000000
vt 0.595791 1.000000
vt 0.591709 1.000000
vt 0.564541 1.000000
vt 0.560459 1.000000
vt 0.533291 1.000000
vt 0.529209 1.000000
vt 0.502041 1.000000
vt 0.497959 1.000000
vt 0.470791 1.000000
vt 0.466709 1.000000
vt 0.439541 1.000000
vt 0.435459 1.000000
vt 0.408291 1.000000
vt 0.404209 1.000000
vt 0.377041 1.000000
vt 0.372959 1.000000
vt 0.345791 1.000000
vt 0.341709 1.000000
vt 0.314541 1.000000
vt 0.310459 1.000000
vt 0.283291 1.000000
vt 0.279209 1.000000
vt 0.252041 1.000000
vt 0.247959 1.000000
vt 0.220791 1.000000
vt 0.216709 1.000000
vt 0.189541 1.000000
vt 0.185459 1.000000
vt 0.158291 1.000000
vt 0.154209 1.000000
vt 0.127041 1.000000
vt 0.122959 1.000000
vt 0.095791 1.000000
vt 0.091709 1.000000
vt 0.064541 1.000000
vt 0.060459 1.000000
vt 0.033291 1.000000
vt 0.029209 1.000000
vt 0.002041 1.000000
vn -0.0980 0.0000 -0.9952
vn 0.4714 0.0000 -0.8819
vn 0.6344 0.0000 -0.7730
vn 0.7730 0.0000 -0.6344
vn 0.8819 0.0000 -0.4714
vn 0.9569 0.0000 -0.2903
vn 0.9952 0.0000 -0.0980
vn 0.9952 0.0000 0.0980
vn 0.9569 0.0000 0.2903
vn 0.8819 0.0000 0.4714
vn 0.7730 0.0000 0.6344
vn 0.6344 0.0000 0.7730
vn 0.4714 0.0000 0.8819
vn 0.2903 0.0000 0.9569
vn 0.0980 0.0000 0.9952
vn -0.0980 0.0000 0.9952
vn -0.2903 0.0000 0.9569
vn -0.4714 0.0000 0.8819
vn -0.6344 0.0000 0.7730
vn -0.7730 0.0000 0.6344
vn -0.8819 0.0000 0.4714
vn -0.9569 0.0000 0.2903
vn -0.9952 0.0000 0.0980
vn -0.9952 0.0000 -0.0980
vn -0.9569 0.0000 -0.2903
vn -0.8819 0.0000 -0.4714
vn -0.7730 0.0000 -0.6344
vn -0.6344 0.0000 -0.7730
vn -0.4714 0.0000 -0.8819
vn -0.2903 0.0000 -0.9569
vn 0.0000 1.0000 0.0000
vn 0.0523 0.8459 -0.5307
vn 0.2903 0.0000 -0.9569
vn 0.0980 0.0000 -0.9952
vn 0.1548 0.8459 -0.5103
vn -0.0523 0.8459 -0.5307
vn 0.3383 0.8459 -0.4122
vn 0.4122 0.8459 -0.3383
vn 0.4703 0.8459 -0.2514
vn 0.5103 0.8459 -0.1548
vn 0.5307 0.8459 -0.0523
vn 0.5307 0.8459 0.0523
vn 0.5103 0.8459 0.1548
vn 0.4703 0.8459 0.2514
vn 0.4122 0.8459 0.3383
vn 0.3383 0.8459 0.4122
vn 0.2514 0.8459 0.4703
vn 0.1548 0.8459 0.5103
vn 0.0523 0.8459 0.5307
vn -0.0523 0.8459 0.5307
vn -0.1548 0.8459 0.5103
vn -0.2514 0.8459 0.4703
vn -0.3383 0.8459 0.4122
vn -0.4122 0.8459 0.3383
vn -0.4703 0.8459 0.2514
vn -0.5103 0.8459 0.1548
vn -0.5307 0.8459 0.0523
vn -0.5307 0.8459 -0.0523
vn -0.5103 0.8459 -0.1548
vn -0.4703 0.8459 -0.2514
vn -0.4123 0.8459 -0.3383
vn -0.3383 0.8459 -0.4122
vn -0.2514 0.8459 -0.4703
vn -0.1548 0.8459 -0.5103
vn 0.2514 0.8459 -0.4703
vn 0.0745 0.6501 -0.7562
vn 0.2206 0.6501 -0.7271
vn 0.3582 0.6501 -0.6701
vn 0.4820 0.6501 -0.5874
vn 0.5874 0.6501 -0.4820
vn 0.6701 0.6501 -0.3582
vn 0.7271 0.6501 -0.2206
vn 0.7562 0.6501 -0.0745
vn 0.7562 0.6501 0.0745
vn 0.7271 0.6501 0.2206
vn 0.6701 0.6501 0.3582
vn 0.5874 0.6501 0.4820
vn 0.4820 0.6501 0.5874
vn 0.3582 0.6501 0.6701
vn 0.2206 0.6501 0.7271
vn 0.0745 0.6501 0.7562
vn -0.0745 0.6501 0.7562
vn -0.2206 0.6501 0.7271
vn -0.3582 0.6501 0.6701
vn -0.4820 0.6501 0.5874
vn -0.5874 0.6501 0.4820
vn -0.6701 0.6501 0.3582
vn -0.7271 0.6501 0.2206
vn -0.7562 0.6501 0.0745
vn -0.7562 0.6501 -0.0745
vn -0.7271 0.6501 -0.2206
vn -0.6701 0.6501 -0.3582
vn -0.5874 0.6501 -0.4820
vn -0.4820 0.6501 -0.5874
vn -0.3582 0.6501 -0.6701
vn 0.0000 -1.0000 -0.0000
vn -0.2206 0.6501 -0.7271
vn -0.0745 0.6501 -0.7562
usemtl None
s off
f 64/1/1 128/2/1 67/3/1 33/4/1
f 35/5/2 70/6/2 72/7/2 36/8/2
f 36/8/3 72/7/3 74/9/3 37/10/3
f 37/10/4 74/9/4 76/11/4 38/12/4
f 38/12/5 76/11/5 78/13/5 39/14/5
f 39/14/6 78/13/6 80/15/6 40/16/6
f 40/16/7 80/15/7 82/17/7 41/18/7
f 41/18/8 82/17/8 84/19/8 42/20/8
f 42/20/9 84/19/9 86/21/9 43/22/9
f 43/22/10 86/21/10 88/23/10 44/24/10
f 44/24/11 88/23/11 90/25/11 45/26/11
f 45/26/12 90/25/12 92/27/12 46/28/12
f 46/28/13 92/27/13 94/29/13 47/30/13
f 47/30/14 94/29/14 96/31/14 48/32/14
f 48/32/15 96/31/15 98/33/15 49/34/15
f 49/34/16 98/33/16 100/35/16 50/36/16
f 50/36/17 100/35/17 102/37/17 51/38/17
f 51/38/18 102/37/18 104/39/18 52/40/18
f 52/40/19 104/39/19 106/41/19 53/42/19
f 53/42/20 106/41/20 108/43/20 54/44/20
f 54/44/21 108/43/21 110/45/21 55/46/21
f 55/46/22 110/45/22 112/47/22 56/48/22
f 56/48/23 112/47/23 114/49/23 57/50/23
f 57/50/24 114/49/24 116/51/24 58/52/24
f 58/52/25 116/51/25 118/53/25 59/54/25
f 59/54/26 118/53/26 120/55/26 60/56/26
f 60/56/27 120/55/27 122/57/27 61/58/27
f 61/58/28 122/57/28 124/59/28 62/60/28
f 62/60/29 124/59/29 126/61/29 63/62/29
f 63/62/30 126/61/30 128/2/30 64/1/30
f 2/63/31 1/64/31 32/65/31 31/66/31 30/67/31 29/68/31 28/69/31 27/70/31 26/71/31 25/72/31 24/73/31 23/74/31 22/75/31 21/76/31 20/77/31 19/78/31 18/79/31 17/80/31 16/81/31 15/82/31 14/83/31 13/84/31 12/85/31 11/86/31 10/87/31 9/88/31 8/89/31 7/90/31 6/91/31 5/92/31 4/93/31 3/94/31
f 1/64/32 2/63/32 65/95/32 68/96/32
f 34/97/33 66/98/33 70/6/33 35/5/33
f 33/99/34 67/100/34 66/98/34 34/97/34
f 2/63/35 3/94/35 69/101/35 65/95/35
f 32/65/36 1/64/36 68/96/36 127/102/36
f 4/93/37 5/92/37 73/103/37 71/104/37
f 5/92/38 6/91/38 75/105/38 73/103/38
f 6/91/39 7/90/39 77/106/39 75/105/39
f 7/90/40 8/89/40 79/107/40 77/106/40
f 8/89/41 9/88/41 81/108/41 79/107/41
f 9/88/42 10/87/42 83/109/42 81/108/42
f 10/87/43 11/86/43 85/110/43 83/109/43
f 11/86/44 12/85/44 87/111/44 85/110/44
f 12/85/45 13/84/45 89/112/45 87/111/45
f 13/84/46 14/83/46 91/113/46 89/112/46
f 14/83/47 15/82/47 93/114/47 91/113/47
f 15/82/48 16/81/48 95/115/48 93/114/48
f 16/81/49 17/80/49 97/116/49 95/115/49
f 17/80/50 18/79/50 99/117/50 97/116/50
f 18/79/51 19/78/51 101/118/51 99/117/51
f 19/78/52 20/77/52 103/119/52 101/118/52
f 20/77/53 21/76/53 105/120/53 103/119/53
f 21/76/54 22/75/54 107/121/54 105/120/54
f 22/75/55 23/74/55 109/122/55 107/121/55
f 23/74/56 24/73/56 111/123/56 109/122/56
f 24/73/57 25/72/57 113/124/57 111/123/57
f 25/72/58 26/71/58 115/125/58 113/124/58
f 26/71/59 27/70/59 117/126/59 115/125/59
f 27/70/60 28/69/60 119/127/60 117/126/60
f 28/69/61 29/68/61 121/128/61 119/127/61
f 29/68/62 30/67/62 123/129/62 121/128/62
f 30/67/63 31/66/63 125/130/63 123/129/63
f 31/66/64 32/65/64 127/102/64 125/130/64
f 3/94/65 4/93/65 71/104/65 69/101/65
f 66/98/66 67/100/66 68/131/66 65/132/66
f 70/6/67 66/98/67 65/133/67 69/134/67
f 72/7/68 70/6/68 69/135/68 71/136/68
f 74/9/69 72/7/69 71/137/69 73/138/69
f 76/11/70 74/9/70 73/139/70 75/140/70
f 78/13/71 76/11/71 75/141/71 77/142/71
f 80/15/72 78/13/72 77/143/72 79/144/72
f 82/17/73 80/15/73 79/145/73 81/146/73
f 84/19/74 82/17/74 81/147/74 83/148/74
f 86/21/75 84/19/75 83/149/75 85/150/75
f 88/23/76 86/21/76 85/151/76 87/152/76
f 90/25/77 88/23/77 87/153/77 89/154/77
f 92/27/78 90/25/78 89/155/78 91/156/78
f 94/29/79 92/27/79 91/157/79 93/158/79
f 96/31/80 94/29/80 93/159/80 95/160/80
f 98/33/81 96/31/81 95/161/81 97/162/81
f 100/35/82 98/33/82 97/163/82 99/164/82
f 102/37/83 100/35/83 99/165/83 101/166/83
f 104/39/84 102/37/84 101/167/84 103/168/84
f 106/41/85 104/39/85 103/169/85 105/170/85
f 108/43/86 106/41/86 105/171/86 107/172/86
f 110/45/87 108/43/87 107/173/87 109/174/87
f 112/47/88 110/45/88 109/175/88 111/176/88
f 114/49/89 112/47/89 111/177/89 113/178/89
f 116/51/90 114/49/90 113/179/90 115/180/90
f 118/53/91 116/51/91 115/181/91 117/182/91
f 120/55/92 118/53/92 117/183/92 119/184/92
f 122/57/93 120/55/93 119/185/93 121/186/93
f 124/59/94 122/57/94 121/187/94 123/188/94
f 126/61/95 124/59/95 123/189/95 125/190/95
f 33/99/96 34/97/96 35/5/96 36/8/96 37/10/96 38/12/96 39/14/96 40/16/96 41/18/96 42/20/96 43/22/96 44/24/96 45/26/96 46/28/96 47/30/96 48/32/96 49/34/96 50/36/96 51/38/96 52/40/96 53/42/96 54/44/96 55/46/96 56/48/96 57/50/96 58/52/96 59/54/96 60/56/96 61/58/96 62/60/96 63/62/96 64/1/96
f 128/2/97 126/61/97 125/191/97 127/192/97
f 67/3/98 128/2/98 127/193/98 68/194/98
