# Blender v2.93.5 OBJ File: 'Burgerv1.blend'
# www.blender.org
mtllib BurgerLettuce.mtl
o Lettuce_Grid
v -0.188592 0.054403 1.152678
v 1.235871 -0.049025 0.062593
v -1.269057 0.048180 0.074040
v -0.158760 0.023005 -1.155903
v -0.182082 -0.024577 0.047728
v -0.543201 -0.009861 1.100719
v -0.940650 0.068550 -0.705858
v -0.863800 0.061627 0.805392
v -0.598880 0.031316 0.085448
v -0.577166 -0.030515 -1.055200
v -0.394679 0.037113 0.085672
v 0.090221 -0.019345 1.156272
v 0.544850 0.050169 1.010122
v 0.973230 -0.044640 0.615961
v 1.161660 0.026003 0.367066
v 1.084736 -0.039634 -0.276979
v 0.975994 -0.086966 -0.584988
v 0.481468 -0.005454 -1.011166
v 0.068488 -0.080044 -1.159428
v 0.989922 -0.037081 0.056679
v 0.746107 -0.032248 0.043161
v 0.367788 -0.032150 0.005962
v 0.011740 -0.009077 0.012380
v -1.147275 -0.036177 -0.422984
v -1.107525 -0.020719 0.548498
v -0.873583 -0.006525 0.055908
v -0.866862 -0.006019 -0.018532
v 0.011493 -0.009220 -0.104145
v 0.367458 -0.032238 -0.141982
v 0.745908 -0.032239 -0.140528
v 0.989885 -0.037079 -0.142364
v -0.396606 0.037220 -0.007925
v -0.598528 0.031719 0.002378
v -0.182404 -0.024669 -0.057943
v -1.264052 0.048323 0.006866
v 1.236365 -0.049038 -0.117700
v -1.269854 0.078080 0.074168
v -1.264665 0.078616 0.007235
v 0.013573 -0.000124 -0.013882
v -0.181804 -0.013780 0.024312
v 0.013391 -0.000248 -0.079088
v -0.395284 0.045615 0.065349
v -0.598500 0.039467 0.067609
v -0.396471 0.045684 0.012383
v -0.182104 -0.013841 -0.035433
v -0.862255 0.002643 0.041291
v 1.235540 0.038565 0.062630
v 1.236035 0.038572 -0.117714
v 0.976614 -0.027970 0.013531
v 0.745697 -0.023281 0.002050
v 0.368056 -0.021200 -0.026637
v 0.367627 -0.021259 -0.109809
v 0.745536 -0.023279 -0.099532
v 0.976563 -0.027973 -0.098575
v -0.598423 0.039697 0.020430
v -0.858756 0.002928 -0.002214
v -0.191501 0.012268 1.153885
v 1.211006 -0.079539 0.043941
v -1.249210 0.020721 0.046239
v -0.164333 -0.018907 -1.155605
v -0.187818 -0.065741 0.039443
v -0.545006 -0.052065 1.100540
v -0.940681 0.026314 -0.706443
v -0.863877 0.019390 0.805854
v -0.596287 -0.009922 0.076074
v -0.579794 -0.072664 -1.053897
v -0.399245 -0.003962 0.076240
v 0.088585 -0.061534 1.157730
v 0.545169 0.007972 1.012090
v 0.972942 -0.086840 0.617893
v 1.166064 -0.015957 0.369754
v 1.084544 -0.081778 -0.273972
v 0.973318 -0.129104 -0.583417
v 0.481829 -0.047684 -1.010339
v 0.064628 -0.122121 -1.158717
v 0.994361 -0.076685 0.041696
v 0.746120 -0.074266 0.038564
v 0.367171 -0.073975 -0.000287
v 0.010329 -0.050576 0.004131
v -1.141909 -0.078080 -0.424783
v -1.103305 -0.062742 0.550162
v -0.872309 -0.043849 0.034904
v -0.863042 -0.044732 -0.000964
v 0.010656 -0.050662 -0.095497
v 0.366934 -0.073926 -0.134766
v 0.744353 -0.074005 -0.134002
v 0.990174 -0.076056 -0.125044
v -0.399964 -0.003569 0.003258
v -0.596927 -0.009379 0.012634
v -0.184204 -0.065928 -0.048495
v -1.243543 0.022759 0.036191
v 1.207884 -0.071441 -0.092379
v -1.248633 0.047237 0.051966
v -1.244977 0.046616 0.028992
v 0.012959 -0.041719 -0.021675
v -0.188309 -0.054635 0.014933
v 0.015061 -0.041627 -0.070218
v -0.401667 0.004850 0.055458
v -0.594148 -0.001465 0.057403
v -0.400924 0.004524 0.021439
v -0.184581 -0.054973 -0.025516
v -0.861061 -0.037078 0.026048
v 1.216634 0.006602 0.040132
v 1.216171 0.006286 -0.096607
v 0.981144 -0.068514 0.001766
v 0.745534 -0.065178 -0.003656
v 0.366691 -0.062934 -0.033425
v 0.366463 -0.062899 -0.102356
v 0.744916 -0.065187 -0.093949
v 0.979748 -0.068439 -0.086087
v -0.594684 -0.001462 0.029811
v -0.857810 -0.036371 0.014234
vt 0.000000 0.000000
vt 0.000000 0.000000
vt 0.000000 0.000000
vt 0.000000 0.000000
vt 0.000000 0.000000
vt 0.000000 0.000000
vt 0.000000 0.000000
vt 0.000000 0.000000
vt 0.000000 0.000000
vt 0.000000 0.000000
vt 0.000000 0.000000
vt 0.000000 0.000000
vt 0.000000 0.000000
vt 0.000000 0.000000
vt 0.000000 0.000000
vt 0.000000 0.000000
vt 0.000000 0.000000
vt 0.000000 0.000000
vt 0.000000 0.000000
vt 0.000000 0.000000
vt 0.000000 0.000000
vt 0.000000 0.000000
vt 0.000000 0.000000
vt 0.000000 0.000000
vt 0.000000 0.000000
vt 0.000000 0.000000
vt 0.000000 0.000000
vt 0.000000 0.000000
vt 0.000000 0.000000
vt 0.000000 0.000000
vt 0.000000 0.000000
vt 0.000000 0.000000
vt 0.000000 0.000000
vt 0.000000 0.000000
vt 0.000000 0.000000
vt 0.000000 0.000000
vt 0.000000 0.000000
vt 0.000000 0.000000
vt 0.000000 0.000000
vt 0.000000 0.000000
vt 0.000000 0.000000
vt 0.000000 0.000000
vt 0.000000 0.000000
vt 0.000000 0.000000
vt 0.000000 0.000000
vt 0.000000 0.000000
vt 0.000000 0.000000
vt 0.000000 0.000000
vt 0.000000 0.000000
vt 0.000000 0.000000
vt 0.000000 0.000000
vt 0.000000 0.000000
vt 0.000000 0.000000
vt 0.000000 0.000000
vt 0.000000 0.000000
vt 0.000000 0.000000
vt 0.000000 0.000000
vt 0.000000 0.000000
vt 0.000000 0.000000
vt 0.000000 0.000000
vt 0.000000 0.000000
vt 0.000000 0.000000
vt 0.000000 0.000000
vt 0.000000 0.000000
vt 0.000000 0.000000
vt 0.000000 0.000000
vt 0.000000 0.000000
vt 0.000000 0.000000
vt 0.000000 0.000000
vt 0.000000 0.000000
vt 0.000000 0.000000
vt 0.000000 0.000000
vt 0.000000 0.000000
vt 0.000000 0.000000
vt 0.000000 0.000000
vt 0.000000 0.000000
vt 0.000000 0.000000
vt 0.000000 0.000000
vt 0.000000 0.000000
vt 0.000000 0.000000
vt 0.000000 0.000000
vt 0.000000 0.000000
vt 0.000000 0.000000
vt 0.000000 0.000000
vt 0.000000 0.000000
vt 0.000000 0.000000
vt 0.000000 0.000000
vt 0.000000 0.000000
vt 0.000000 0.000000
vt 0.000000 0.000000
vt 0.000000 0.000000
vt 0.000000 0.000000
vt 0.000000 0.000000
vt 0.000000 0.000000
vt 0.000000 0.000000
vt 0.000000 0.000000
vt 0.000000 0.000000
vt 0.000000 0.000000
vt 0.000000 0.000000
vt 0.000000 0.000000
vt 0.000000 0.000000
vt 0.000000 0.000000
vt 0.000000 0.000000
vt 0.000000 0.000000
vt 0.000000 0.000000
vt 0.000000 0.000000
vt 0.000000 0.000000
vt 0.000000 0.000000
vt 0.000000 0.000000
vt 0.000000 0.000000
vt 0.000000 0.000000
vt 0.000000 0.000000
vn 0.3174 0.8685 0.3808
vn 0.0067 0.9648 -0.2629
vn -0.1544 0.9147 -0.3736
vn 0.1619 0.8991 -0.4067
vn -0.0200 0.9652 0.2608
vn 0.0193 0.9785 -0.2054
vn 0.0002 0.9293 0.3694
vn 0.0527 0.9725 -0.2268
vn -0.1457 0.9893 0.0090
vn 0.0875 0.9939 -0.0665
vn -0.0621 0.9977 -0.0261
vn 0.1200 0.9922 -0.0342
vn -0.0042 0.9999 -0.0154
vn 0.1049 0.9939 0.0346
vn -0.1792 0.9800 -0.0868
vn 0.1407 0.9855 0.0952
vn 0.1238 0.9795 -0.1589
vn -0.2192 0.9672 0.1285
vn 0.0916 0.9958 0.0028
vn 0.0108 0.9999 -0.0101
vn 0.0470 0.9988 0.0142
vn 0.0086 0.9780 0.2084
vn -0.0231 0.9935 -0.1113
vn 0.0228 0.3875 -0.9216
vn 0.1284 0.9902 -0.0557
vn -0.0628 0.9976 -0.0284
vn 0.2033 0.9791 -0.0029
vn -0.0299 0.9995 0.0033
vn 0.2671 0.9637 -0.0035
vn -0.0698 0.9976 -0.0012
vn 0.0592 0.9982 -0.0015
vn 0.0054 1.0000 -0.0003
vn 0.0203 0.9998 -0.0000
vn -0.2486 0.9686 -0.0004
vn 0.1837 0.9827 0.0218
vn -0.1391 0.9903 0.0001
vn 0.0674 0.9444 0.3218
vn 0.0267 0.9436 -0.3299
vn 1.0000 0.0038 0.0027
vn -0.9969 -0.0227 -0.0759
vn -0.0440 0.9183 -0.3934
vn -0.0923 0.9019 -0.4221
vn 0.1115 0.3190 0.9412
vn -0.0249 0.9162 0.4000
vn -0.1671 0.8936 0.4166
vn -0.1411 0.3865 0.9115
vn -0.0341 0.4081 -0.9123
vn -0.3164 -0.8757 -0.3648
vn -0.0062 -0.9645 0.2641
vn 0.1520 -0.9176 0.3674
vn -0.1595 -0.8979 0.4104
vn 0.0202 -0.9659 -0.2583
vn -0.0179 -0.9793 0.2015
vn -0.0011 -0.9295 -0.3688
vn -0.0149 -0.9818 0.1895
vn 0.1468 -0.9891 -0.0120
vn -0.0882 -0.9939 0.0658
vn 0.0613 -0.9978 0.0255
vn -0.1195 -0.9923 0.0333
vn 0.0041 -0.9999 0.0143
vn -0.1058 -0.9937 -0.0356
vn 0.1757 -0.9813 0.0786
vn -0.1711 -0.9788 -0.1126
vn -0.1549 -0.9717 0.1784
vn 0.2197 -0.9680 -0.1217
vn -0.0923 -0.9957 -0.0023
vn -0.0109 -0.9999 0.0110
vn 0.0141 -0.9988 0.0473
vn -0.0080 -0.9789 -0.2043
vn 0.0242 -0.9932 0.1141
vn 0.0180 -0.2429 0.9699
vn -0.1291 -0.9900 0.0567
vn 0.0620 -0.9977 0.0287
vn -0.2027 -0.9792 0.0041
vn 0.0320 -0.9995 0.0054
vn -0.2683 -0.9633 -0.0075
vn 0.0668 -0.9977 0.0071
vn -0.0603 -0.9982 -0.0020
vn -0.0060 -1.0000 -0.0001
vn -0.0140 -0.9999 -0.0002
vn 0.3027 -0.9531 -0.0015
vn -0.2131 -0.9760 -0.0447
vn 0.1326 -0.9911 -0.0087
vn -0.0666 -0.9446 -0.3213
vn -0.0261 -0.9436 0.3299
vn -0.9962 0.0854 0.0155
vn 0.9618 0.0243 0.2726
vn 0.0461 -0.9106 0.4107
vn 0.0955 -0.8980 0.4295
vn -0.0624 -0.0714 -0.9955
vn 0.0270 -0.9157 -0.4010
vn 0.1697 -0.8950 -0.4126
vn 0.1460 -0.4065 -0.9019
vn 0.0206 -0.3764 0.9262
vn 0.9184 -0.3127 0.2424
vn -0.7877 -0.6031 -0.1259
vn -0.1507 0.0205 0.9884
vn -0.0190 -0.0099 -0.9998
vn -0.6759 0.0175 0.7368
vn -0.6910 0.0156 -0.7227
vn -0.7246 -0.0182 0.6889
vn -0.2364 0.0046 -0.9716
vn -0.0049 0.0319 0.9995
vn 0.3001 0.0340 0.9533
vn 0.6811 0.0340 0.7314
vn 0.7811 0.0722 0.6202
vn 0.7025 -0.7112 -0.0240
vn 0.9432 -0.0499 -0.3284
vn 0.6501 -0.0394 -0.7589
vn 0.3413 -0.0313 -0.9394
vn 0.6619 -0.5277 -0.5324
vn -0.8041 -0.0342 -0.5936
vn -0.8933 -0.3920 0.2197
vn -0.9047 -0.4032 -0.1379
usemtl None
s off
f 11/1/1 5/2/1 40/3/1 42/4/1
f 30/5/2 29/6/2 52/7/2 53/8/2
f 28/9/3 34/10/3 45/11/3 41/12/3
f 34/10/4 32/13/4 44/14/4 45/11/4
f 22/15/5 21/16/5 50/17/5 51/18/5
f 31/19/6 30/5/6 53/8/6 54/20/6
f 5/2/7 23/21/7 39/22/7 40/3/7
f 15/23/8 2/24/8 20/25/8
f 14/26/9 15/23/9 20/25/9 21/16/9
f 13/27/10 14/26/10 21/16/10 22/15/10
f 12/28/11 13/27/11 22/15/11 23/21/11
f 23/21/12 5/2/12 1/29/12 12/28/12
f 6/30/13 1/29/13 5/2/13 11/1/13
f 8/31/14 6/30/14 11/1/14 9/32/14
f 25/33/15 8/31/15 9/32/15 26/34/15
f 26/34/16 3/35/16 25/33/16
f 35/36/17 27/37/17 24/38/17
f 24/38/18 27/37/18 33/39/18 7/40/18
f 18/41/19 29/6/19 30/5/19 17/42/19
f 10/43/20 32/13/20 34/10/20 4/44/20
f 36/45/21 16/46/21 31/19/21
f 21/16/22 20/25/22 49/47/22 50/17/22
f 17/42/23 30/5/23 31/19/23 16/46/23
f 27/37/24 35/36/24 38/48/24 56/49/24
f 7/40/25 33/39/25 32/13/25 10/43/25
f 19/50/26 28/9/26 29/6/26 18/41/26
f 4/44/27 34/10/27 28/9/27 19/50/27
f 43/51/28 42/4/28 44/14/28 55/52/28
f 44/14/29 42/4/29 40/3/29 45/11/29
f 40/3/30 39/22/30 41/12/30 45/11/30
f 41/12/31 39/22/31 51/18/31 52/7/31
f 51/18/32 50/17/32 53/8/32 52/7/32
f 50/17/33 49/47/33 54/20/33 53/8/33
f 48/53/34 54/20/34 49/47/34 47/54/34
f 38/48/35 37/55/35 46/56/35 56/49/35
f 46/56/36 43/51/36 55/52/36 56/49/36
f 23/21/37 22/15/37 51/18/37 39/22/37
f 29/6/38 28/9/38 41/12/38 52/7/38
f 2/24/39 36/45/39 48/53/39 47/54/39
f 35/36/40 3/35/40 37/55/40 38/48/40
f 32/13/41 33/39/41 55/52/41 44/14/41
f 33/39/42 27/37/42 56/49/42 55/52/42
f 3/35/43 26/34/43 46/56/43 37/55/43
f 9/32/44 11/1/44 42/4/44 43/51/44
f 26/34/45 9/32/45 43/51/45 46/56/45
f 20/25/46 2/24/46 47/54/46 49/47/46
f 36/45/47 31/19/47 54/20/47 48/53/47
f 67/57/48 98/58/48 96/59/48 61/60/48
f 86/61/49 109/62/49 108/63/49 85/64/49
f 84/65/50 97/66/50 101/67/50 90/68/50
f 90/68/51 101/67/51 100/69/51 88/70/51
f 78/71/52 107/72/52 106/73/52 77/74/52
f 87/75/53 110/76/53 109/62/53 86/61/53
f 61/60/54 96/59/54 95/77/54 79/78/54
f 71/79/55 76/80/55 58/81/55
f 70/82/56 77/74/56 76/80/56 71/79/56
f 69/83/57 78/71/57 77/74/57 70/82/57
f 68/84/58 79/78/58 78/71/58 69/83/58
f 79/78/59 68/84/59 57/85/59 61/60/59
f 62/86/60 67/57/60 61/60/60 57/85/60
f 64/87/61 65/88/61 67/57/61 62/86/61
f 81/89/62 82/90/62 65/88/62 64/87/62
f 82/90/63 81/89/63 59/91/63
f 91/92/64 80/93/64 83/94/64
f 80/93/65 63/95/65 89/96/65 83/94/65
f 74/97/66 73/98/66 86/61/66 85/64/66
f 66/99/67 60/100/67 90/68/67 88/70/67
f 92/101/68 87/75/68 72/102/68
f 77/74/69 106/73/69 105/103/69 76/80/69
f 73/98/70 72/102/70 87/75/70 86/61/70
f 83/94/71 112/104/71 94/105/71 91/92/71
f 63/95/72 66/99/72 88/70/72 89/96/72
f 75/106/73 74/97/73 85/64/73 84/65/73
f 60/100/74 75/106/74 84/65/74 90/68/74
f 99/107/75 111/108/75 100/69/75 98/58/75
f 100/69/76 101/67/76 96/59/76 98/58/76
f 96/59/77 101/67/77 97/66/77 95/77/77
f 97/66/78 108/63/78 107/72/78 95/77/78
f 107/72/79 108/63/79 109/62/79 106/73/79
f 106/73/80 109/62/80 110/76/80 105/103/80
f 104/109/81 103/110/81 105/103/81 110/76/81
f 94/105/82 112/104/82 102/111/82 93/112/82
f 102/111/83 112/104/83 111/108/83 99/107/83
f 79/78/84 95/77/84 107/72/84 78/71/84
f 85/64/85 108/63/85 97/66/85 84/65/85
f 58/81/86 103/110/86 104/109/86 92/101/86
f 91/92/87 94/105/87 93/112/87 59/91/87
f 88/70/88 100/69/88 111/108/88 89/96/88
f 89/96/89 111/108/89 112/104/89 83/94/89
f 59/91/90 93/112/90 102/111/90 82/90/90
f 65/88/91 99/107/91 98/58/91 67/57/91
f 82/90/92 102/111/92 99/107/92 65/88/92
f 76/80/93 105/103/93 103/110/93 58/81/93
f 92/101/94 104/109/94 110/76/94 87/75/94
f 2/24/95 15/23/95 71/79/95 58/81/95
f 3/35/96 35/36/96 91/92/96 59/91/96
f 1/29/97 6/30/97 62/86/97 57/85/97
f 4/44/98 19/50/98 75/106/98 60/100/98
f 6/30/99 8/31/99 64/87/99 62/86/99
f 7/40/100 10/43/100 66/99/100 63/95/100
f 8/31/101 25/33/101 81/89/101 64/87/101
f 10/43/102 4/44/102 60/100/102 66/99/102
f 12/28/103 1/29/103 57/85/103 68/84/103
f 13/27/104 12/28/104 68/84/104 69/83/104
f 14/26/105 13/27/105 69/83/105 70/82/105
f 15/23/106 14/26/106 70/82/106 71/79/106
f 36/45/107 2/24/107 58/81/107 92/101/107
f 17/42/108 16/46/108 72/102/108 73/98/108
f 18/41/109 17/42/109 73/98/109 74/97/109
f 19/50/110 18/41/110 74/97/110 75/106/110
f 16/46/111 36/45/111 92/101/111 72/102/111
f 24/38/112 7/40/112 63/95/112 80/93/112
f 25/33/113 3/35/113 59/91/113 81/89/113
f 35/36/114 24/38/114 80/93/114 91/92/114
