# Blender v2.93.5 OBJ File: 'TruckKitchenInterior.blend'
# www.blender.org
mtllib TruckChassisv2.mtl
o TruckChassis_Plane
v -2.284000 -0.500000 -5.012104
v -2.054979 3.300009 -5.207766
v 2.284000 -0.500000 -5.012104
v 2.054979 3.300009 -5.207766
v 2.284000 -0.500000 -6.846427
v 2.054979 1.735359 -6.650765
v -2.284000 -0.500000 4.321259
v -2.284000 3.512166 4.321259
v 2.284000 -0.500000 4.321259
v 2.284000 3.512166 4.321259
v -2.054979 1.735359 -6.650765
v -2.284000 -0.500000 -6.846427
v 2.284000 -0.500000 -7.938062
v -2.284000 -0.500000 -7.938062
v 2.284000 1.180742 -7.938062
v -2.284000 1.180742 -7.938062
v 2.284000 3.112661 -5.195536
v -2.284000 3.112661 -5.195536
v 2.284000 1.720386 -6.479562
v -2.284000 1.720386 -6.479562
v 2.284000 1.708403 -5.195536
v 2.284000 1.506083 -5.012104
v 2.284000 3.512166 -5.012104
v 2.284000 1.523202 -6.846427
v -2.284000 1.708403 -5.195536
v -2.284000 3.512166 -5.012104
v -2.284000 1.523202 -6.846427
v -2.284000 1.506083 -5.012104
v 2.284000 1.920995 -6.479562
v 2.284000 2.509831 -5.936507
v 2.284000 2.592561 -5.860209
v 2.284000 3.114373 -5.378969
v 2.054979 2.048289 -6.362165
v 2.054979 2.361219 -6.073565
v 2.054979 2.674149 -5.784966
v 2.054979 2.987079 -5.496366
v 2.284000 1.998841 -6.222758
v 2.284000 2.411027 -5.842619
v 2.284000 2.500756 -5.759866
v 2.284000 2.834206 -5.452342
v -2.284000 3.114373 -5.378969
v -2.284000 2.592562 -5.860209
v -2.284000 2.509831 -5.936508
v -2.284000 1.920995 -6.479562
v -2.054979 2.987079 -5.496366
v -2.054979 2.674149 -5.784966
v -2.054979 2.361219 -6.073565
v -2.054979 2.048289 -6.362165
v -2.284000 2.834206 -5.452342
v -2.284000 2.500756 -5.759866
v -2.284000 2.411027 -5.842619
v -2.284000 1.998842 -6.222758
v -2.284000 0.511601 -6.846427
v 2.284000 0.511601 -6.846427
v 1.941400 -0.016787 -7.938062
v 1.941400 0.424408 -7.938062
v 1.941400 0.676519 -7.938062
v -1.941400 0.676519 -7.938062
v -1.941400 0.424408 -7.938062
v -1.941400 -0.016787 -7.938062
v 1.941400 0.277343 -7.938062
v 2.284000 0.760557 -7.938062
v -2.284000 0.760557 -7.938062
v -1.941400 0.277343 -7.938062
v 2.284000 -0.079815 -7.938062
v 2.284000 0.340371 -7.938062
v -2.284000 0.340371 -7.938062
v -2.284000 -0.079815 -7.938062
v 1.941400 0.424408 -7.736863
v 1.941400 0.676519 -7.736863
v -1.941400 0.676519 -7.736863
v -1.941400 0.424408 -7.736863
v 1.941400 -0.016787 -7.736863
v 1.941400 0.277343 -7.736863
v -1.941400 0.277343 -7.736863
v -1.941400 -0.016787 -7.736863
v 2.284000 -0.500000 -3.666404
v -2.284000 -0.500000 -3.666404
v 2.284000 3.512166 -3.666406
v -2.284000 3.512166 -3.666406
v -2.534000 2.509831 -5.936508
v -2.534000 2.592562 -5.860209
v 2.534000 2.592561 -5.860209
v 2.534000 2.509831 -5.936507
v -2.219401 -0.436810 -5.012104
v -2.054979 3.261544 -5.051748
v 2.219401 -0.436810 -5.012104
v 2.054979 3.261544 -5.051748
v 2.219401 -0.436810 -6.846427
v 2.054979 1.696895 -6.494748
v -2.231253 -0.448404 4.221464
v -2.231253 3.460569 4.221464
v 2.231253 -0.448404 4.221464
v 2.231253 3.460569 4.221464
v -2.054979 1.696895 -6.494748
v -2.219401 -0.436810 -6.846427
v 2.231253 -0.448404 -7.838267
v -2.231253 -0.448404 -7.838267
v 2.228128 1.146058 -7.818891
v -2.228128 1.146058 -7.818891
v 2.192640 3.112661 -5.195536
v -2.192640 3.112661 -5.195536
v 2.192643 1.720386 -6.479562
v -2.192643 1.720386 -6.479562
v 2.192640 1.708403 -5.195536
v 2.192640 1.506083 -5.012104
v 2.228780 3.451956 -4.938621
v 2.224258 1.491501 -6.730923
v -2.192640 1.708403 -5.195536
v -2.228780 3.451956 -4.938621
v -2.224258 1.491501 -6.730923
v -2.192640 1.506083 -5.012104
v 2.219401 1.893797 -6.369243
v 2.233325 2.477828 -5.806691
v 2.233325 2.560558 -5.730394
v 2.219401 3.087175 -5.268650
v 2.054979 2.009825 -6.206148
v 2.054979 2.322754 -5.917549
v 2.054979 2.635684 -5.628949
v 2.054979 2.948615 -5.340348
v 2.192640 1.998841 -6.222758
v 2.192640 2.411027 -5.842619
v 2.192640 2.500756 -5.759866
v 2.192640 2.834206 -5.452342
v -2.219401 3.087175 -5.268650
v -2.233325 2.560558 -5.730394
v -2.233325 2.477829 -5.806692
v -2.219401 1.893797 -6.369243
v -2.054979 2.948615 -5.340348
v -2.054979 2.635684 -5.628949
v -2.054979 2.322755 -5.917549
v -2.054979 2.009825 -6.206148
v -2.192640 2.834206 -5.452342
v -2.192640 2.500756 -5.759866
v -2.192640 2.411027 -5.842619
v -2.192643 1.998842 -6.222758
v -2.202287 0.511601 -6.769131
v 2.195370 0.511601 -6.804506
v 1.968944 -0.043731 -7.781718
v 1.968944 0.397464 -7.781718
v 1.968944 0.703463 -7.781718
v -1.968944 0.703463 -7.781718
v -1.968944 0.397464 -7.781718
v -1.968944 -0.043731 -7.781718
v 1.968944 0.304287 -7.781718
v 2.219401 0.760557 -7.815842
v -2.219404 0.760557 -7.815832
v -1.968944 0.304287 -7.781718
v 2.219401 -0.079815 -7.815842
v 2.219401 0.340371 -7.815842
v -2.219404 0.340371 -7.815832
v -2.219401 -0.079815 -7.815842
v 1.994147 0.372811 -7.637068
v 1.994147 0.728116 -7.637068
v -1.994146 0.728116 -7.637068
v -1.994146 0.372811 -7.637068
v 1.994147 -0.068384 -7.637068
v 1.994147 0.328940 -7.637068
v -1.994146 0.328940 -7.637068
v -1.994146 -0.068384 -7.637068
v 2.223095 -0.440423 -3.608789
v -2.223095 -0.440423 -3.608789
v 2.223095 3.452589 -3.608791
v -2.223095 3.452589 -3.608791
v -2.534000 2.471367 -5.780490
v -2.534000 2.554097 -5.704193
v 2.534000 2.554100 -5.704193
v 2.534000 2.471370 -5.780490
v -1.519549 3.042796 -3.666405
v 1.519549 1.804306 -3.666405
v 1.519549 3.042796 -3.666405
v -1.519549 1.804306 -3.666405
v -1.519549 1.804306 -3.608790
v -1.519549 3.042796 -3.608790
v 1.519549 1.804306 -3.608790
v 1.519549 3.042796 -3.608790
v 2.284000 1.476092 2.411133
v 2.284000 2.682006 2.411133
v 2.284000 1.476092 -2.410342
v 2.284000 2.682006 -2.410342
v 2.229367 2.682006 2.411133
v 2.224344 1.476092 -2.410342
v 2.224344 2.682006 -2.410342
v 2.229367 1.476092 2.411133
vt 1.000000 0.000000
vt 0.000000 0.000000
vt 0.000000 0.849790
vt 1.000000 0.849790
vt 0.000000 0.861846
vt 0.000000 1.000000
vt 1.000000 1.000000
vt 1.000000 0.861846
vt 0.000000 1.000000
vt 0.000000 1.000000
vt 0.000000 1.000000
vt 1.000000 1.000000
vt 1.000000 1.000000
vt 1.000000 0.861847
vt 0.832651 0.849791
vt 1.000000 0.849790
vt 0.000000 0.849790
vt 0.167349 0.849790
vt 0.167349 0.849790
vt 0.832651 0.849790
vt 0.000000 1.000000
vt 0.000000 1.000000
vt 0.000000 1.000000
vt 0.000000 0.000000
vt 0.000000 0.000000
vt 0.000000 0.000000
vt 0.000000 0.000000
vt 1.000000 1.000000
vt 1.000000 1.000000
vt 0.000000 1.000000
vt 0.000000 1.000000
vt 1.000000 1.000000
vt 1.000000 1.000000
vt 0.000000 1.000000
vt 1.000000 1.000000
vt 0.949864 1.000000
vt 0.050136 1.000000
vt 0.949864 1.000000
vt 1.000000 1.000000
vt 0.050136 1.000000
vt 0.949864 1.000000
vt 0.050136 1.000000
vt 0.000000 1.000000
vt 1.000000 1.000000
vt 1.000000 1.000000
vt 1.000000 1.000000
vt 1.000000 1.000000
vt 1.000000 1.000000
vt 1.000000 1.000000
vt 0.000000 1.000000
vt 0.000000 1.000000
vt 0.000000 0.000000
vt 0.000000 0.000000
vt 0.000000 0.861847
vt 0.000000 1.000000
vt 1.000000 1.000000
vt 1.000000 1.000000
vt 1.000000 1.000000
vt 1.000000 1.000000
vt 1.000000 1.000000
vt 0.949864 1.000000
vt 0.949864 1.000000
vt 0.949864 1.000000
vt 0.000000 1.000000
vt 0.000000 1.000000
vt 0.000000 1.000000
vt 0.000000 0.000000
vt 0.000000 0.000000
vt 0.000000 0.000000
vt 0.000000 0.000000
vt 0.000000 1.000000
vt 0.000000 1.000000
vt 0.050136 1.000000
vt 0.050136 1.000000
vt 0.050136 1.000000
vt 1.000000 1.000000
vt 1.000000 1.000000
vt 0.000000 1.000000
vt 0.000000 1.000000
vt 0.000000 1.000000
vt 0.000000 1.000000
vt 0.000000 1.000000
vt 1.000000 1.000000
vt 1.000000 1.000000
vt 0.000000 1.000000
vt 0.000000 1.000000
vt 1.000000 1.000000
vt 1.000000 1.000000
vt 1.000000 1.000000
vt 0.000000 1.000000
vt 0.000000 1.000000
vt 1.000000 1.000000
vt 0.000000 1.000000
vt 0.000000 1.000000
vt 1.000000 1.000000
vt 1.000000 1.000000
vt 1.000000 0.000000
vt 0.000000 0.000000
vt 0.000000 0.000000
vt 0.000000 0.000000
vt 0.000000 0.000000
vt 0.000000 1.000000
vt 0.000000 1.000000
vt 1.000000 1.000000
vt 1.000000 1.000000
vt 1.000000 0.716161
vt 1.000000 0.716161
vt 1.000000 0.203214
vt 1.000000 0.203214
vt 1.000000 0.000000
vt 1.000000 0.849790
vt 0.000000 0.849790
vt 0.000000 0.000000
vt 0.000000 0.861846
vt 1.000000 0.861846
vt 1.000000 1.000000
vt 0.000000 1.000000
vt 0.000000 1.000000
vt 0.000000 1.000000
vt 0.000000 1.000000
vt 1.000000 1.000000
vt 1.000000 0.861847
vt 1.000000 1.000000
vt 0.158236 0.849790
vt 0.158236 0.849790
vt 0.000000 0.849790
vt 1.000000 0.849790
vt 0.841764 0.849790
vt 0.841764 0.849790
vt 0.000000 1.000000
vt 0.000000 1.000000
vt 0.000000 1.000000
vt 0.000000 0.000000
vt 0.000000 0.000000
vt 0.000000 0.000000
vt 0.000000 0.000000
vt 1.000000 1.000000
vt 1.000000 1.000000
vt 1.000000 1.000000
vt 0.000000 1.000000
vt 0.000000 1.000000
vt 1.000000 1.000000
vt 1.000000 1.000000
vt 0.000000 1.000000
vt 0.949864 1.000000
vt 0.050136 1.000000
vt 0.949864 1.000000
vt 1.000000 1.000000
vt 0.050136 1.000000
vt 0.949864 1.000000
vt 0.050136 1.000000
vt 0.000000 1.000000
vt 1.000000 1.000000
vt 1.000000 1.000000
vt 1.000000 1.000000
vt 1.000000 1.000000
vt 1.000000 1.000000
vt 1.000000 1.000000
vt 0.000000 1.000000
vt 0.000000 1.000000
vt 0.000000 0.000000
vt 0.000000 0.000000
vt 0.000000 0.861847
vt 0.000000 1.000000
vt 1.000000 1.000000
vt 1.000000 1.000000
vt 1.000000 1.000000
vt 1.000000 1.000000
vt 1.000000 1.000000
vt 0.949864 1.000000
vt 0.949864 1.000000
vt 0.949864 1.000000
vt 0.000000 1.000000
vt 0.000000 1.000000
vt 0.000000 1.000000
vt 0.000000 0.000000
vt 0.000000 0.000000
vt 0.000000 0.000000
vt 0.000000 0.000000
vt 0.000000 1.000000
vt 0.000000 1.000000
vt 0.050136 1.000000
vt 0.050136 1.000000
vt 0.050136 1.000000
vt 1.000000 1.000000
vt 1.000000 1.000000
vt 0.000000 1.000000
vt 0.000000 1.000000
vt 0.000000 1.000000
vt 0.000000 1.000000
vt 0.000000 1.000000
vt 1.000000 1.000000
vt 1.000000 1.000000
vt 0.000000 1.000000
vt 0.000000 1.000000
vt 1.000000 1.000000
vt 1.000000 1.000000
vt 1.000000 1.000000
vt 0.000000 1.000000
vt 0.000000 1.000000
vt 1.000000 1.000000
vt 1.000000 1.000000
vt 0.000000 1.000000
vt 0.000000 1.000000
vt 1.000000 1.000000
vt 1.000000 0.000000
vt 0.000000 0.000000
vt 0.000000 0.000000
vt 0.000000 0.000000
vt 0.000000 0.000000
vt 0.000000 1.000000
vt 0.000000 1.000000
vt 1.000000 1.000000
vt 1.000000 1.000000
vt 1.000000 0.196469
vt 1.000000 0.196469
vt 1.000000 0.719727
vt 1.000000 0.719727
vt 0.375000 0.122093
vt 0.375000 0.130040
vt 0.625000 0.130040
vt 0.625000 0.122093
vt 0.625000 0.627907
vt 0.625000 0.619960
vt 0.375000 0.619960
vt 0.375000 0.627907
vt 0.125000 0.619960
vt 0.125000 0.627907
vt 0.875000 0.619960
vt 0.875000 0.627907
vt 0.375000 0.351858
vt 0.375000 0.359315
vt 0.625000 0.359315
vt 0.625000 0.351858
vt 0.625000 0.897514
vt 0.625000 0.890685
vt 0.375000 0.890685
vt 0.375000 0.897514
vt 0.227486 0.750000
vt 0.234315 0.750000
vt 0.234315 0.500000
vt 0.226858 0.500000
vt 0.765685 0.750000
vt 0.772514 0.750000
vt 0.773142 0.500000
vt 0.765685 0.500000
vn 0.0000 -1.0000 0.0000
vn -1.0000 0.0000 0.0000
vn 1.0000 0.0000 0.0000
vn 0.0000 -0.0000 -1.0000
vn 0.0000 0.9541 -0.2993
vn 0.0000 0.6780 -0.7351
vn 0.0000 1.0000 0.0000
vn 0.0000 0.0000 1.0000
vn 0.0000 1.0000 0.0010
vn 0.0000 1.0000 0.0026
vn 0.9999 -0.0054 -0.0089
vn -0.9999 0.0010 0.0106
vn 0.9968 0.0090 0.0790
vn 0.0040 -0.0570 0.9984
vn 0.0000 0.0079 1.0000
vn 0.0000 -0.9531 0.3026
vn 0.0000 0.9999 -0.0117
vn 0.0000 -0.5108 0.8597
vn 0.2471 -0.6551 0.7140
vn 0.0000 -0.7546 0.6562
vn -0.2326 -0.6534 0.7204
vn -1.0000 -0.0058 -0.0015
vn -0.9968 0.0090 0.0790
vn -0.7824 0.4157 -0.4638
vn -0.9974 -0.0715 -0.0104
vn 0.8014 0.4095 -0.4361
vn 1.0000 0.0000 0.0010
vn 0.9999 0.0010 0.0106
vn 0.9974 -0.0715 -0.0104
vn -0.8013 0.4095 -0.4361
vn -0.5677 0.5437 -0.6182
vn -0.6192 0.5443 -0.5660
vn 0.2326 -0.6534 0.7204
vn 0.1856 -0.6779 0.7113
vn 0.1314 -0.6721 0.7287
vn 0.1846 -0.6532 0.7343
vn 0.7824 0.4157 -0.4637
vn 0.6192 0.5442 -0.5660
vn 0.4209 0.6150 -0.6668
vn 0.5677 0.5437 -0.6182
vn -0.2471 -0.6551 0.7140
vn -0.1846 -0.6532 0.7343
vn -0.1314 -0.6721 0.7287
vn -0.1856 -0.6779 0.7113
vn -0.9999 0.0016 -0.0150
vn 0.0000 -0.0607 0.9982
vn -0.9852 0.0000 -0.1716
vn 0.0000 0.9858 -0.1680
vn 0.9999 0.0014 -0.0111
vn 0.1350 0.0000 0.9908
vn -0.1350 0.0000 0.9909
vn 0.0000 -0.5130 0.8584
vn 0.0000 0.5130 0.8584
vn -0.1350 -0.0000 0.9908
vn 0.0000 -0.6871 0.7266
vn 0.0000 0.6870 0.7266
vn 0.0000 -0.9858 -0.1680
vn 0.9852 0.0000 -0.1716
vn 0.0000 -1.0000 0.0010
vn 0.0000 -1.0000 0.0005
vn -0.4209 0.6150 -0.6668
vn 0.0784 -0.6759 0.7328
vn -0.0784 -0.6759 0.7328
vn -1.0000 -0.0000 0.0010
vn 0.0000 -0.9709 -0.2394
vn 0.0000 -0.6780 0.7351
vn 0.0000 1.0000 0.0093
vn 0.0000 0.9709 0.2394
vn 0.6774 0.0223 -0.7353
vn -0.4564 -0.0311 0.8892
usemtl None
s off
f 9/1/1 7/2/1 78/3/1 77/4/1
f 78/5/1 1/6/1 3/7/1 77/8/1
f 12/9/2 1/6/2 28/10/2 27/11/2
f 3/7/3 22/12/3 23/13/3 79/14/3 77/8/3
f 171/15/4 79/16/4 77/4/4 78/3/4 80/17/4 169/18/4 172/19/4 170/20/4
f 80/17/4 79/16/4 171/15/4 169/18/4
f 28/10/2 26/21/2 18/22/2 25/23/2
f 24/24/4 54/25/4 53/26/4 27/27/4
f 3/7/1 1/6/1 12/9/1 5/28/1
f 62/29/4 63/30/4 16/31/4 15/32/4
f 27/11/5 24/33/5 15/32/5 16/31/5
f 5/28/1 12/9/1 14/34/1 13/35/1
f 4/36/6 2/37/6 26/21/6 23/13/6
f 36/38/6 4/36/6 23/13/6 32/39/6
f 11/40/6 6/41/6 24/33/6 27/11/6
f 48/42/6 11/40/6 27/11/6 44/43/6
f 54/44/3 24/33/3 22/12/3 3/7/3 5/28/3
f 21/45/3 17/46/3 23/13/3 22/12/3
f 37/47/3 19/48/3 24/33/3 29/49/3
f 19/48/3 21/45/3 22/12/3 24/33/3
f 49/50/2 18/22/2 26/21/2 41/51/2
f 7/2/2 8/52/2 80/17/2 78/3/2
f 28/53/2 1/6/2 78/5/2 80/54/2 26/21/2
f 25/23/2 20/55/2 27/11/2 28/10/2
f 17/46/3 40/56/3 32/39/3 23/13/3
f 40/56/3 39/57/3 31/58/3 32/39/3
f 38/59/3 37/47/3 29/49/3 30/60/3
f 6/41/6 33/61/6 29/49/6 24/33/6
f 33/61/6 34/62/6 30/60/6 29/49/6
f 34/62/6 35/63/6 31/58/6 30/60/6
f 35/63/6 36/38/6 32/39/6 31/58/6
f 20/55/2 52/64/2 44/43/2 27/11/2
f 52/64/2 51/65/2 43/66/2 44/43/2
f 42/67/2 43/68/2 51/69/2 50/70/2
f 50/71/2 49/50/2 41/51/2 42/72/2
f 2/37/6 45/73/6 41/51/6 26/21/6
f 45/73/6 46/74/6 42/72/6 41/51/6
f 46/74/6 47/75/6 43/66/6 42/72/6
f 47/75/6 48/42/6 44/43/6 43/66/6
f 62/29/3 15/32/3 24/33/3 54/44/3 5/28/3 13/35/3 65/76/3 66/77/3
f 13/35/4 14/34/4 68/78/4 65/76/4
f 59/79/3 58/80/3 71/81/3 72/82/3
f 58/80/1 57/83/1 70/84/1 71/81/1
f 12/9/2 53/85/2 27/11/2 16/31/2 63/30/2 67/86/2 68/78/2 14/34/2
f 56/87/4 57/83/4 62/29/4 66/77/4
f 58/80/4 59/79/4 67/86/4 63/30/4
f 59/79/4 56/87/4 66/77/4 67/86/4
f 57/83/4 58/80/4 63/30/4 62/29/4
f 55/88/4 61/89/4 66/77/4 65/76/4
f 64/90/4 60/91/4 68/78/4 67/86/4
f 60/91/4 55/88/4 65/76/4 68/78/4
f 61/89/4 64/90/4 67/86/4 66/77/4
f 73/92/4 76/93/4 75/94/4 74/95/4
f 69/96/4 72/82/4 71/81/4 70/84/4
f 55/88/7 60/91/7 76/93/7 73/92/7
f 61/89/2 55/88/2 73/92/2 74/95/2
f 56/87/7 59/79/7 72/82/7 69/96/7
f 64/90/1 61/89/1 74/95/1 75/94/1
f 57/83/2 56/87/2 69/96/2 70/84/2
f 60/91/3 64/90/3 75/94/3 76/93/3
f 8/52/8 7/2/8 9/1/8 10/97/8
f 80/17/7 8/52/7 10/97/7 79/16/7
f 79/14/7 23/13/7 26/21/7 80/54/7
f 30/98/3 31/99/3 39/100/3 38/101/3
f 42/72/6 43/66/6 81/102/6 82/103/6
f 30/60/6 31/58/6 83/104/6 84/105/6
f 10/97/3 9/1/3 77/4/3 79/16/3 180/106/3 179/107/3 177/108/3 178/109/3
f 180/106/3 79/16/3 10/97/3 178/109/3
f 93/110/9 161/111/9 162/112/9 91/113/9
f 162/114/10 161/115/10 87/116/10 85/117/10
f 96/118/11 111/119/11 112/120/11 85/117/11
f 106/121/12 87/116/12 161/115/12 163/122/12 107/123/12
f 173/124/8 174/125/8 164/126/8 162/112/8 161/111/8 163/127/8 176/128/8 175/129/8
f 176/128/8 163/127/8 164/126/8 174/125/8
f 112/120/13 109/130/13 102/131/13 110/132/13
f 108/133/14 111/134/14 137/135/14 138/136/14
f 87/116/7 89/137/7 96/118/7 85/117/7
f 146/138/15 99/139/15 100/140/15 147/141/15
f 111/119/16 100/140/16 99/139/16 108/142/16
f 89/137/17 97/143/17 98/144/17 96/118/17
f 88/145/18 107/123/18 110/132/18 86/146/18
f 120/147/19 116/148/19 107/123/19 88/145/19
f 95/149/20 111/119/20 108/142/20 90/150/20
f 132/151/21 128/152/21 111/119/21 95/149/21
f 89/137/22 87/116/22 106/121/22 108/142/22 138/153/22
f 105/154/23 106/121/23 107/123/23 101/155/23
f 121/156/24 113/157/24 108/142/24 103/158/24
f 103/158/25 108/142/25 106/121/25 105/154/25
f 133/159/26 125/160/26 110/132/26 102/131/26
f 91/113/27 162/112/27 164/126/27 92/161/27
f 85/117/28 112/162/28 110/132/28 164/163/28 162/114/28
f 109/130/29 112/120/29 111/119/29 104/164/29
f 101/155/30 107/123/30 116/148/30 124/165/30
f 124/165/31 116/148/31 115/166/31 123/167/31
f 122/168/32 114/169/32 113/157/32 121/156/32
f 90/150/33 108/142/33 113/157/33 117/170/33
f 117/170/34 113/157/34 114/169/34 118/171/34
f 118/171/35 114/169/35 115/166/35 119/172/35
f 119/172/36 115/166/36 116/148/36 120/147/36
f 104/164/37 111/119/37 128/152/37 136/173/37
f 136/173/38 128/152/38 127/174/38 135/175/38
f 126/176/39 134/177/39 135/178/39 127/179/39
f 134/180/40 126/181/40 125/160/40 133/159/40
f 86/146/41 110/132/41 125/160/41 129/182/41
f 129/182/42 125/160/42 126/181/42 130/183/42
f 130/183/43 126/181/43 127/174/43 131/184/43
f 131/184/44 127/174/44 128/152/44 132/151/44
f 149/185/45 97/143/45 89/137/45 138/153/45 108/142/45 99/139/45 146/138/45 150/186/45
f 97/143/46 149/185/46 152/187/46 98/144/46
f 143/188/47 156/189/47 155/190/47 142/191/47
f 142/191/48 155/190/48 154/192/48 141/193/48
f 147/141/49 100/140/49 111/119/49 137/194/49 96/118/49 98/144/49 152/187/49 151/195/49
f 140/196/50 150/186/50 146/138/50 141/193/50
f 142/191/51 147/141/51 151/195/51 143/188/51
f 143/188/52 151/195/52 150/186/52 140/196/52
f 141/193/53 146/138/53 147/141/53 142/191/53
f 139/197/50 149/185/50 150/186/50 145/198/50
f 148/199/54 151/195/54 152/187/54 144/200/54
f 144/200/55 152/187/55 149/185/55 139/197/55
f 145/198/56 150/186/56 151/195/56 148/199/56
f 157/201/8 158/202/8 159/203/8 160/204/8
f 153/205/8 154/192/8 155/190/8 156/189/8
f 139/197/57 157/201/57 160/204/57 144/200/57
f 145/198/58 158/202/58 157/201/58 139/197/58
f 140/196/57 153/205/57 156/189/57 143/188/57
f 148/199/48 159/203/48 158/202/48 145/198/48
f 141/193/58 154/192/58 153/205/58 140/196/58
f 144/200/47 160/204/47 159/203/47 148/199/47
f 92/161/4 94/206/4 93/110/4 91/113/4
f 164/126/59 163/127/59 94/206/59 92/161/59
f 163/122/60 164/163/60 110/132/60 107/123/60
f 114/207/61 122/208/61 123/209/61 115/210/61
f 126/181/62 166/211/62 165/212/62 127/174/62
f 114/169/63 168/213/63 167/214/63 115/166/63
f 163/127/64 161/111/64 93/110/64 94/206/64 181/215/64 184/216/64 182/217/64 183/218/64
f 181/215/64 94/206/64 163/127/64 183/218/64
f 47/75/3 46/74/3 130/183/3 131/184/3
f 2/37/65 4/36/65 88/145/65 86/146/65
f 17/46/4 21/45/4 105/154/4 101/155/4
f 34/62/2 33/61/2 117/170/2 118/171/2
f 36/38/2 35/63/2 119/172/2 120/147/2
f 37/47/66 38/59/66 122/168/66 121/156/66
f 40/56/66 17/46/66 101/155/66 124/165/66
f 45/73/3 2/37/3 86/146/3 129/182/3
f 46/74/3 45/73/3 129/182/3 130/183/3
f 11/40/3 48/42/3 132/151/3 95/149/3
f 49/50/66 50/71/66 134/180/66 133/159/66
f 51/65/66 52/64/66 136/173/66 135/175/66
f 53/26/1 54/25/1 138/136/1 137/135/1
f 4/36/2 36/38/2 120/147/2 88/145/2
f 39/57/66 40/56/66 124/165/66 123/167/66
f 20/55/67 25/23/67 109/130/67 104/164/67
f 48/42/3 47/75/3 131/184/3 132/151/3
f 6/41/68 11/40/68 95/149/68 90/150/68
f 25/23/4 18/22/4 102/131/4 109/130/4
f 12/9/69 27/11/69 111/119/69 96/118/69
f 33/61/2 6/41/2 90/150/2 117/170/2
f 35/63/2 34/62/2 118/171/2 119/172/2
f 38/101/66 39/100/66 123/209/66 122/208/66
f 18/22/66 49/50/66 133/159/66 102/131/66
f 50/70/66 51/69/66 135/178/66 134/177/66
f 52/64/66 20/55/66 104/164/66 136/173/66
f 53/85/70 12/9/70 96/118/70 137/194/70
f 21/45/67 19/48/67 103/158/67 105/154/67
f 19/48/66 37/47/66 121/156/66 103/158/66
f 82/103/2 81/102/2 165/212/2 166/211/2
f 42/72/68 82/103/68 166/211/68 126/181/68
f 81/102/65 43/66/65 127/174/65 165/212/65
f 84/105/3 83/104/3 167/214/3 168/213/3
f 83/104/68 31/58/68 115/166/68 167/214/68
f 30/60/65 84/105/65 168/213/65 114/169/65
f 173/219/3 172/220/3 169/221/3 174/222/3
f 176/223/2 171/224/2 170/225/2 175/226/2
f 175/226/7 170/225/7 172/227/7 173/228/7
f 169/229/1 171/224/1 176/223/1 174/230/1
f 182/231/8 179/232/8 180/233/8 183/234/8
f 181/235/4 178/236/4 177/237/4 184/238/4
f 184/239/7 177/240/7 179/241/7 182/242/7
f 178/243/1 181/244/1 183/245/1 180/246/1
